<mxfile host="app.diagrams.net" agent="Mozilla/5.0 (Windows NT 10.0; Win64; x64) AppleWebKit/537.36 (KHTML, like Gecko) Chrome/139.0.0.0 Safari/537.36" version="28.0.9">
  <diagram name="Σελίδα-1" id="aSXfHJzae4YSF8V149zj">
    <mxGraphModel dx="3102" dy="1224" grid="1" gridSize="10" guides="1" tooltips="1" connect="1" arrows="1" fold="1" page="1" pageScale="1" pageWidth="827" pageHeight="1169" math="0" shadow="0">
      <root>
        <mxCell id="0" />
        <mxCell id="1" parent="0" />
        <mxCell id="r0z94dYXCMPsbsiVsmT_-21" value="customers" style="shape=table;startSize=30;container=1;collapsible=0;childLayout=tableLayout;fontSize=16;gradientColor=none;swimlaneLine=1;" parent="1" vertex="1">
          <mxGeometry x="20" y="150" width="230" height="421.0000000000001" as="geometry" />
        </mxCell>
        <mxCell id="r0z94dYXCMPsbsiVsmT_-22" value="" style="shape=tableRow;horizontal=0;startSize=0;swimlaneHead=0;swimlaneBody=0;strokeColor=inherit;top=0;left=0;bottom=0;right=0;collapsible=0;dropTarget=0;fillColor=none;points=[[0,0.5],[1,0.5]];portConstraint=eastwest;fontSize=16;" parent="r0z94dYXCMPsbsiVsmT_-21" vertex="1">
          <mxGeometry y="30" width="230" height="40" as="geometry" />
        </mxCell>
        <mxCell id="r0z94dYXCMPsbsiVsmT_-23" value="UUID" style="shape=partialRectangle;html=1;whiteSpace=wrap;connectable=0;strokeColor=inherit;overflow=hidden;fillColor=none;top=0;left=0;bottom=0;right=0;pointerEvents=1;fontSize=12;" parent="r0z94dYXCMPsbsiVsmT_-22" vertex="1">
          <mxGeometry width="80" height="40" as="geometry">
            <mxRectangle width="80" height="40" as="alternateBounds" />
          </mxGeometry>
        </mxCell>
        <mxCell id="r0z94dYXCMPsbsiVsmT_-24" value="ID" style="shape=partialRectangle;html=1;whiteSpace=wrap;connectable=0;strokeColor=inherit;overflow=hidden;fillColor=none;top=0;left=0;bottom=0;right=0;pointerEvents=1;fontSize=12;" parent="r0z94dYXCMPsbsiVsmT_-22" vertex="1">
          <mxGeometry x="80" width="80" height="40" as="geometry">
            <mxRectangle width="80" height="40" as="alternateBounds" />
          </mxGeometry>
        </mxCell>
        <mxCell id="r0z94dYXCMPsbsiVsmT_-25" value="PK(Not Null)" style="shape=partialRectangle;html=1;whiteSpace=wrap;connectable=0;strokeColor=inherit;overflow=hidden;fillColor=none;top=0;left=0;bottom=0;right=0;pointerEvents=1;fontSize=12;" parent="r0z94dYXCMPsbsiVsmT_-22" vertex="1">
          <mxGeometry x="160" width="70" height="40" as="geometry">
            <mxRectangle width="70" height="40" as="alternateBounds" />
          </mxGeometry>
        </mxCell>
        <mxCell id="r0z94dYXCMPsbsiVsmT_-26" value="" style="shape=tableRow;horizontal=0;startSize=0;swimlaneHead=0;swimlaneBody=0;strokeColor=inherit;top=0;left=0;bottom=0;right=0;collapsible=0;dropTarget=0;fillColor=none;points=[[0,0.5],[1,0.5]];portConstraint=eastwest;fontSize=16;" parent="r0z94dYXCMPsbsiVsmT_-21" vertex="1">
          <mxGeometry y="70" width="230" height="40" as="geometry" />
        </mxCell>
        <mxCell id="r0z94dYXCMPsbsiVsmT_-27" value="String" style="shape=partialRectangle;html=1;whiteSpace=wrap;connectable=0;strokeColor=inherit;overflow=hidden;fillColor=none;top=0;left=0;bottom=0;right=0;pointerEvents=1;fontSize=12;" parent="r0z94dYXCMPsbsiVsmT_-26" vertex="1">
          <mxGeometry width="80" height="40" as="geometry">
            <mxRectangle width="80" height="40" as="alternateBounds" />
          </mxGeometry>
        </mxCell>
        <mxCell id="r0z94dYXCMPsbsiVsmT_-28" value="&lt;font&gt;Phone Number&lt;/font&gt;" style="shape=partialRectangle;html=1;whiteSpace=wrap;connectable=0;strokeColor=inherit;overflow=hidden;fillColor=none;top=0;left=0;bottom=0;right=0;pointerEvents=1;fontSize=12;" parent="r0z94dYXCMPsbsiVsmT_-26" vertex="1">
          <mxGeometry x="80" width="80" height="40" as="geometry">
            <mxRectangle width="80" height="40" as="alternateBounds" />
          </mxGeometry>
        </mxCell>
        <mxCell id="r0z94dYXCMPsbsiVsmT_-29" value="Not Null" style="shape=partialRectangle;html=1;whiteSpace=wrap;connectable=0;strokeColor=inherit;overflow=hidden;fillColor=none;top=0;left=0;bottom=0;right=0;pointerEvents=1;fontSize=12;" parent="r0z94dYXCMPsbsiVsmT_-26" vertex="1">
          <mxGeometry x="160" width="70" height="40" as="geometry">
            <mxRectangle width="70" height="40" as="alternateBounds" />
          </mxGeometry>
        </mxCell>
        <mxCell id="r0z94dYXCMPsbsiVsmT_-30" value="" style="shape=tableRow;horizontal=0;startSize=0;swimlaneHead=0;swimlaneBody=0;strokeColor=inherit;top=0;left=0;bottom=0;right=0;collapsible=0;dropTarget=0;fillColor=none;points=[[0,0.5],[1,0.5]];portConstraint=eastwest;fontSize=16;" parent="r0z94dYXCMPsbsiVsmT_-21" vertex="1">
          <mxGeometry y="110" width="230" height="39" as="geometry" />
        </mxCell>
        <mxCell id="r0z94dYXCMPsbsiVsmT_-31" value="String" style="shape=partialRectangle;html=1;whiteSpace=wrap;connectable=0;strokeColor=inherit;overflow=hidden;fillColor=none;top=0;left=0;bottom=0;right=0;pointerEvents=1;fontSize=12;" parent="r0z94dYXCMPsbsiVsmT_-30" vertex="1">
          <mxGeometry width="80" height="39" as="geometry">
            <mxRectangle width="80" height="39" as="alternateBounds" />
          </mxGeometry>
        </mxCell>
        <mxCell id="r0z94dYXCMPsbsiVsmT_-32" value="E-Mail" style="shape=partialRectangle;html=1;whiteSpace=wrap;connectable=0;strokeColor=inherit;overflow=hidden;fillColor=none;top=0;left=0;bottom=0;right=0;pointerEvents=1;fontSize=12;" parent="r0z94dYXCMPsbsiVsmT_-30" vertex="1">
          <mxGeometry x="80" width="80" height="39" as="geometry">
            <mxRectangle width="80" height="39" as="alternateBounds" />
          </mxGeometry>
        </mxCell>
        <mxCell id="r0z94dYXCMPsbsiVsmT_-33" value="Not Null" style="shape=partialRectangle;html=1;whiteSpace=wrap;connectable=0;strokeColor=inherit;overflow=hidden;fillColor=none;top=0;left=0;bottom=0;right=0;pointerEvents=1;fontSize=12;" parent="r0z94dYXCMPsbsiVsmT_-30" vertex="1">
          <mxGeometry x="160" width="70" height="39" as="geometry">
            <mxRectangle width="70" height="39" as="alternateBounds" />
          </mxGeometry>
        </mxCell>
        <mxCell id="r0z94dYXCMPsbsiVsmT_-174" style="shape=tableRow;horizontal=0;startSize=0;swimlaneHead=0;swimlaneBody=0;strokeColor=inherit;top=0;left=0;bottom=0;right=0;collapsible=0;dropTarget=0;fillColor=none;points=[[0,0.5],[1,0.5]];portConstraint=eastwest;fontSize=16;" parent="r0z94dYXCMPsbsiVsmT_-21" vertex="1">
          <mxGeometry y="149" width="230" height="39" as="geometry" />
        </mxCell>
        <mxCell id="r0z94dYXCMPsbsiVsmT_-175" value="String" style="shape=partialRectangle;html=1;whiteSpace=wrap;connectable=0;strokeColor=inherit;overflow=hidden;fillColor=none;top=0;left=0;bottom=0;right=0;pointerEvents=1;fontSize=12;" parent="r0z94dYXCMPsbsiVsmT_-174" vertex="1">
          <mxGeometry width="80" height="39" as="geometry">
            <mxRectangle width="80" height="39" as="alternateBounds" />
          </mxGeometry>
        </mxCell>
        <mxCell id="r0z94dYXCMPsbsiVsmT_-176" value="Username" style="shape=partialRectangle;html=1;whiteSpace=wrap;connectable=0;strokeColor=inherit;overflow=hidden;fillColor=none;top=0;left=0;bottom=0;right=0;pointerEvents=1;fontSize=12;" parent="r0z94dYXCMPsbsiVsmT_-174" vertex="1">
          <mxGeometry x="80" width="80" height="39" as="geometry">
            <mxRectangle width="80" height="39" as="alternateBounds" />
          </mxGeometry>
        </mxCell>
        <mxCell id="r0z94dYXCMPsbsiVsmT_-177" value="Not Null" style="shape=partialRectangle;html=1;whiteSpace=wrap;connectable=0;strokeColor=inherit;overflow=hidden;fillColor=none;top=0;left=0;bottom=0;right=0;pointerEvents=1;fontSize=12;" parent="r0z94dYXCMPsbsiVsmT_-174" vertex="1">
          <mxGeometry x="160" width="70" height="39" as="geometry">
            <mxRectangle width="70" height="39" as="alternateBounds" />
          </mxGeometry>
        </mxCell>
        <mxCell id="r0z94dYXCMPsbsiVsmT_-91" value="" style="shape=tableRow;horizontal=0;startSize=0;swimlaneHead=0;swimlaneBody=0;top=0;left=0;bottom=0;right=0;dropTarget=0;collapsible=0;recursiveResize=0;expand=0;fontStyle=0;fillColor=none;" parent="r0z94dYXCMPsbsiVsmT_-21" vertex="1">
          <mxGeometry y="188" width="230" height="47" as="geometry" />
        </mxCell>
        <mxCell id="r0z94dYXCMPsbsiVsmT_-92" value="Hashed" style="connectable=0;recursiveResize=0;strokeColor=none;fillColor=none;align=center;whiteSpace=wrap;html=1;" parent="r0z94dYXCMPsbsiVsmT_-91" vertex="1">
          <mxGeometry width="80" height="47" as="geometry">
            <mxRectangle width="80" height="47" as="alternateBounds" />
          </mxGeometry>
        </mxCell>
        <mxCell id="r0z94dYXCMPsbsiVsmT_-93" value="Password" style="connectable=0;recursiveResize=0;strokeColor=none;fillColor=none;align=center;whiteSpace=wrap;html=1;" parent="r0z94dYXCMPsbsiVsmT_-91" vertex="1">
          <mxGeometry x="80" width="80" height="47" as="geometry">
            <mxRectangle width="80" height="47" as="alternateBounds" />
          </mxGeometry>
        </mxCell>
        <mxCell id="r0z94dYXCMPsbsiVsmT_-94" value="Not Null" style="connectable=0;recursiveResize=0;strokeColor=none;fillColor=none;align=center;whiteSpace=wrap;html=1;" parent="r0z94dYXCMPsbsiVsmT_-91" vertex="1">
          <mxGeometry x="160" width="70" height="47" as="geometry">
            <mxRectangle width="70" height="47" as="alternateBounds" />
          </mxGeometry>
        </mxCell>
        <mxCell id="r0z94dYXCMPsbsiVsmT_-87" style="shape=tableRow;horizontal=0;startSize=0;swimlaneHead=0;swimlaneBody=0;top=0;left=0;bottom=0;right=0;dropTarget=0;collapsible=0;recursiveResize=0;expand=0;fontStyle=0;fillColor=none;" parent="r0z94dYXCMPsbsiVsmT_-21" vertex="1">
          <mxGeometry y="235" width="230" height="46" as="geometry" />
        </mxCell>
        <mxCell id="r0z94dYXCMPsbsiVsmT_-88" value="String" style="connectable=0;recursiveResize=0;strokeColor=none;fillColor=none;align=center;whiteSpace=wrap;html=1;" parent="r0z94dYXCMPsbsiVsmT_-87" vertex="1">
          <mxGeometry width="80" height="46" as="geometry">
            <mxRectangle width="80" height="46" as="alternateBounds" />
          </mxGeometry>
        </mxCell>
        <mxCell id="r0z94dYXCMPsbsiVsmT_-89" value="Name" style="connectable=0;recursiveResize=0;strokeColor=none;fillColor=none;align=center;whiteSpace=wrap;html=1;" parent="r0z94dYXCMPsbsiVsmT_-87" vertex="1">
          <mxGeometry x="80" width="80" height="46" as="geometry">
            <mxRectangle width="80" height="46" as="alternateBounds" />
          </mxGeometry>
        </mxCell>
        <mxCell id="r0z94dYXCMPsbsiVsmT_-90" value="" style="connectable=0;recursiveResize=0;strokeColor=none;fillColor=none;align=center;whiteSpace=wrap;html=1;" parent="r0z94dYXCMPsbsiVsmT_-87" vertex="1">
          <mxGeometry x="160" width="70" height="46" as="geometry">
            <mxRectangle width="70" height="46" as="alternateBounds" />
          </mxGeometry>
        </mxCell>
        <mxCell id="r0z94dYXCMPsbsiVsmT_-170" style="shape=tableRow;horizontal=0;startSize=0;swimlaneHead=0;swimlaneBody=0;top=0;left=0;bottom=0;right=0;dropTarget=0;collapsible=0;recursiveResize=0;expand=0;fontStyle=0;fillColor=none;" parent="r0z94dYXCMPsbsiVsmT_-21" vertex="1">
          <mxGeometry y="281" width="230" height="46" as="geometry" />
        </mxCell>
        <mxCell id="r0z94dYXCMPsbsiVsmT_-171" value="String" style="connectable=0;recursiveResize=0;strokeColor=none;fillColor=none;align=center;whiteSpace=wrap;html=1;" parent="r0z94dYXCMPsbsiVsmT_-170" vertex="1">
          <mxGeometry width="80" height="46" as="geometry">
            <mxRectangle width="80" height="46" as="alternateBounds" />
          </mxGeometry>
        </mxCell>
        <mxCell id="r0z94dYXCMPsbsiVsmT_-172" value="Surname" style="connectable=0;recursiveResize=0;strokeColor=none;fillColor=none;align=center;whiteSpace=wrap;html=1;" parent="r0z94dYXCMPsbsiVsmT_-170" vertex="1">
          <mxGeometry x="80" width="80" height="46" as="geometry">
            <mxRectangle width="80" height="46" as="alternateBounds" />
          </mxGeometry>
        </mxCell>
        <mxCell id="r0z94dYXCMPsbsiVsmT_-173" value="" style="connectable=0;recursiveResize=0;strokeColor=none;fillColor=none;align=center;whiteSpace=wrap;html=1;" parent="r0z94dYXCMPsbsiVsmT_-170" vertex="1">
          <mxGeometry x="160" width="70" height="46" as="geometry">
            <mxRectangle width="70" height="46" as="alternateBounds" />
          </mxGeometry>
        </mxCell>
        <mxCell id="r0z94dYXCMPsbsiVsmT_-83" style="shape=tableRow;horizontal=0;startSize=0;swimlaneHead=0;swimlaneBody=0;top=0;left=0;bottom=0;right=0;dropTarget=0;collapsible=0;recursiveResize=0;expand=0;fontStyle=0;fillColor=none;" parent="r0z94dYXCMPsbsiVsmT_-21" vertex="1">
          <mxGeometry y="327" width="230" height="47" as="geometry" />
        </mxCell>
        <mxCell id="r0z94dYXCMPsbsiVsmT_-84" value="TimeStamp" style="connectable=0;recursiveResize=0;strokeColor=none;fillColor=none;align=center;whiteSpace=wrap;html=1;" parent="r0z94dYXCMPsbsiVsmT_-83" vertex="1">
          <mxGeometry width="80" height="47" as="geometry">
            <mxRectangle width="80" height="47" as="alternateBounds" />
          </mxGeometry>
        </mxCell>
        <mxCell id="r0z94dYXCMPsbsiVsmT_-85" value="CreatedAt" style="connectable=0;recursiveResize=0;strokeColor=none;fillColor=none;align=center;whiteSpace=wrap;html=1;" parent="r0z94dYXCMPsbsiVsmT_-83" vertex="1">
          <mxGeometry x="80" width="80" height="47" as="geometry">
            <mxRectangle width="80" height="47" as="alternateBounds" />
          </mxGeometry>
        </mxCell>
        <mxCell id="r0z94dYXCMPsbsiVsmT_-86" value="Not Null" style="connectable=0;recursiveResize=0;strokeColor=none;fillColor=none;align=center;whiteSpace=wrap;html=1;" parent="r0z94dYXCMPsbsiVsmT_-83" vertex="1">
          <mxGeometry x="160" width="70" height="47" as="geometry">
            <mxRectangle width="70" height="47" as="alternateBounds" />
          </mxGeometry>
        </mxCell>
        <mxCell id="r0z94dYXCMPsbsiVsmT_-158" value="" style="shape=tableRow;horizontal=0;startSize=0;swimlaneHead=0;swimlaneBody=0;top=0;left=0;bottom=0;right=0;dropTarget=0;collapsible=0;recursiveResize=0;expand=0;fontStyle=0;fillColor=none;" parent="r0z94dYXCMPsbsiVsmT_-21" vertex="1">
          <mxGeometry y="374" width="230" height="47" as="geometry" />
        </mxCell>
        <mxCell id="r0z94dYXCMPsbsiVsmT_-159" value="&#xa;&lt;span style=&quot;color: rgb(18, 18, 18); font-family: Helvetica; font-size: 12px; font-style: normal; font-variant-ligatures: normal; font-variant-caps: normal; font-weight: 400; letter-spacing: normal; orphans: 2; text-align: center; text-indent: 0px; text-transform: none; widows: 2; word-spacing: 0px; -webkit-text-stroke-width: 0px; white-space: normal; background-color: rgb(211, 213, 214); text-decoration-thickness: initial; text-decoration-style: initial; text-decoration-color: initial; display: inline !important; float: none;&quot;&gt;Boolean&lt;/span&gt;&#xa;&#xa;" style="connectable=0;recursiveResize=0;strokeColor=none;fillColor=none;align=center;whiteSpace=wrap;html=1;" parent="r0z94dYXCMPsbsiVsmT_-158" vertex="1">
          <mxGeometry width="80" height="47" as="geometry">
            <mxRectangle width="80" height="47" as="alternateBounds" />
          </mxGeometry>
        </mxCell>
        <mxCell id="r0z94dYXCMPsbsiVsmT_-160" value="&lt;br&gt;&lt;font color=&quot;#121212&quot;&gt;&lt;span style=&quot;background-color: rgb(211, 213, 214);&quot;&gt;is_subscribed&lt;/span&gt;&lt;/font&gt;&lt;div&gt;&lt;br/&gt;&lt;/div&gt;" style="connectable=0;recursiveResize=0;strokeColor=none;fillColor=none;align=center;whiteSpace=wrap;html=1;" parent="r0z94dYXCMPsbsiVsmT_-158" vertex="1">
          <mxGeometry x="80" width="80" height="47" as="geometry">
            <mxRectangle width="80" height="47" as="alternateBounds" />
          </mxGeometry>
        </mxCell>
        <mxCell id="r0z94dYXCMPsbsiVsmT_-161" value="&lt;span style=&quot;color: rgb(255, 255, 255); background-color: rgb(27, 29, 30); float: none; display: inline !important;&quot;&gt;default = false&lt;/span&gt;" style="connectable=0;recursiveResize=0;strokeColor=none;fillColor=none;align=center;whiteSpace=wrap;html=1;" parent="r0z94dYXCMPsbsiVsmT_-158" vertex="1">
          <mxGeometry x="160" width="70" height="47" as="geometry">
            <mxRectangle width="70" height="47" as="alternateBounds" />
          </mxGeometry>
        </mxCell>
        <mxCell id="r0z94dYXCMPsbsiVsmT_-215" style="edgeStyle=orthogonalEdgeStyle;rounded=0;orthogonalLoop=1;jettySize=auto;html=1;exitX=0.5;exitY=0;exitDx=0;exitDy=0;" parent="1" source="r0z94dYXCMPsbsiVsmT_-178" target="r0z94dYXCMPsbsiVsmT_-213" edge="1">
          <mxGeometry relative="1" as="geometry" />
        </mxCell>
        <mxCell id="r0z94dYXCMPsbsiVsmT_-178" value="customer_address" style="shape=table;startSize=30;container=1;collapsible=0;childLayout=tableLayout;strokeColor=default;fontSize=16;" parent="1" vertex="1">
          <mxGeometry x="319" y="155" width="181" height="411" as="geometry" />
        </mxCell>
        <mxCell id="r0z94dYXCMPsbsiVsmT_-205" style="shape=tableRow;horizontal=0;startSize=0;swimlaneHead=0;swimlaneBody=0;strokeColor=inherit;top=0;left=0;bottom=0;right=0;collapsible=0;dropTarget=0;fillColor=none;points=[[0,0.5],[1,0.5]];portConstraint=eastwest;fontSize=16;" parent="r0z94dYXCMPsbsiVsmT_-178" vertex="1">
          <mxGeometry y="30" width="181" height="80" as="geometry" />
        </mxCell>
        <mxCell id="r0z94dYXCMPsbsiVsmT_-206" value="&lt;font style=&quot;font-size: 11px;&quot;&gt;big int&lt;/font&gt;" style="shape=partialRectangle;html=1;whiteSpace=wrap;connectable=0;strokeColor=inherit;overflow=hidden;fillColor=none;top=0;left=0;bottom=0;right=0;pointerEvents=1;fontSize=12;" parent="r0z94dYXCMPsbsiVsmT_-205" vertex="1">
          <mxGeometry width="60" height="80" as="geometry">
            <mxRectangle width="60" height="80" as="alternateBounds" />
          </mxGeometry>
        </mxCell>
        <mxCell id="r0z94dYXCMPsbsiVsmT_-207" value="addr_id" style="shape=partialRectangle;html=1;whiteSpace=wrap;connectable=0;strokeColor=inherit;overflow=hidden;fillColor=none;top=0;left=0;bottom=0;right=0;pointerEvents=1;fontSize=12;" parent="r0z94dYXCMPsbsiVsmT_-205" vertex="1">
          <mxGeometry x="60" width="70" height="80" as="geometry">
            <mxRectangle width="70" height="80" as="alternateBounds" />
          </mxGeometry>
        </mxCell>
        <mxCell id="r0z94dYXCMPsbsiVsmT_-208" value="PK" style="shape=partialRectangle;html=1;whiteSpace=wrap;connectable=0;strokeColor=inherit;overflow=hidden;fillColor=none;top=0;left=0;bottom=0;right=0;pointerEvents=1;fontSize=12;" parent="r0z94dYXCMPsbsiVsmT_-205" vertex="1">
          <mxGeometry x="130" width="51" height="80" as="geometry">
            <mxRectangle width="51" height="80" as="alternateBounds" />
          </mxGeometry>
        </mxCell>
        <mxCell id="r0z94dYXCMPsbsiVsmT_-179" value="" style="shape=tableRow;horizontal=0;startSize=0;swimlaneHead=0;swimlaneBody=0;strokeColor=inherit;top=0;left=0;bottom=0;right=0;collapsible=0;dropTarget=0;fillColor=none;points=[[0,0.5],[1,0.5]];portConstraint=eastwest;fontSize=16;" parent="r0z94dYXCMPsbsiVsmT_-178" vertex="1">
          <mxGeometry y="110" width="181" height="80" as="geometry" />
        </mxCell>
        <mxCell id="r0z94dYXCMPsbsiVsmT_-180" value="&lt;font style=&quot;font-size: 11px;&quot;&gt;big int&lt;/font&gt;" style="shape=partialRectangle;html=1;whiteSpace=wrap;connectable=0;strokeColor=inherit;overflow=hidden;fillColor=none;top=0;left=0;bottom=0;right=0;pointerEvents=1;fontSize=12;" parent="r0z94dYXCMPsbsiVsmT_-179" vertex="1">
          <mxGeometry width="60" height="80" as="geometry">
            <mxRectangle width="60" height="80" as="alternateBounds" />
          </mxGeometry>
        </mxCell>
        <mxCell id="r0z94dYXCMPsbsiVsmT_-181" value="&lt;font&gt;customer_id&lt;/font&gt;" style="shape=partialRectangle;html=1;whiteSpace=wrap;connectable=0;strokeColor=inherit;overflow=hidden;fillColor=none;top=0;left=0;bottom=0;right=0;pointerEvents=1;fontSize=12;" parent="r0z94dYXCMPsbsiVsmT_-179" vertex="1">
          <mxGeometry x="60" width="70" height="80" as="geometry">
            <mxRectangle width="70" height="80" as="alternateBounds" />
          </mxGeometry>
        </mxCell>
        <mxCell id="r0z94dYXCMPsbsiVsmT_-182" value="FK" style="shape=partialRectangle;html=1;whiteSpace=wrap;connectable=0;strokeColor=inherit;overflow=hidden;fillColor=none;top=0;left=0;bottom=0;right=0;pointerEvents=1;fontSize=12;" parent="r0z94dYXCMPsbsiVsmT_-179" vertex="1">
          <mxGeometry x="130" width="51" height="80" as="geometry">
            <mxRectangle width="51" height="80" as="alternateBounds" />
          </mxGeometry>
        </mxCell>
        <mxCell id="r0z94dYXCMPsbsiVsmT_-183" value="" style="shape=tableRow;horizontal=0;startSize=0;swimlaneHead=0;swimlaneBody=0;strokeColor=inherit;top=0;left=0;bottom=0;right=0;collapsible=0;dropTarget=0;fillColor=none;points=[[0,0.5],[1,0.5]];portConstraint=eastwest;fontSize=16;" parent="r0z94dYXCMPsbsiVsmT_-178" vertex="1">
          <mxGeometry y="190" width="181" height="50" as="geometry" />
        </mxCell>
        <mxCell id="r0z94dYXCMPsbsiVsmT_-184" value="String" style="shape=partialRectangle;html=1;whiteSpace=wrap;connectable=0;strokeColor=inherit;overflow=hidden;fillColor=none;top=0;left=0;bottom=0;right=0;pointerEvents=1;fontSize=12;" parent="r0z94dYXCMPsbsiVsmT_-183" vertex="1">
          <mxGeometry width="60" height="50" as="geometry">
            <mxRectangle width="60" height="50" as="alternateBounds" />
          </mxGeometry>
        </mxCell>
        <mxCell id="r0z94dYXCMPsbsiVsmT_-185" value="Street" style="shape=partialRectangle;html=1;whiteSpace=wrap;connectable=0;strokeColor=inherit;overflow=hidden;fillColor=none;top=0;left=0;bottom=0;right=0;pointerEvents=1;fontSize=12;" parent="r0z94dYXCMPsbsiVsmT_-183" vertex="1">
          <mxGeometry x="60" width="70" height="50" as="geometry">
            <mxRectangle width="70" height="50" as="alternateBounds" />
          </mxGeometry>
        </mxCell>
        <mxCell id="r0z94dYXCMPsbsiVsmT_-186" value="" style="shape=partialRectangle;html=1;whiteSpace=wrap;connectable=0;strokeColor=inherit;overflow=hidden;fillColor=none;top=0;left=0;bottom=0;right=0;pointerEvents=1;fontSize=12;" parent="r0z94dYXCMPsbsiVsmT_-183" vertex="1">
          <mxGeometry x="130" width="51" height="50" as="geometry">
            <mxRectangle width="51" height="50" as="alternateBounds" />
          </mxGeometry>
        </mxCell>
        <mxCell id="r0z94dYXCMPsbsiVsmT_-187" value="" style="shape=tableRow;horizontal=0;startSize=0;swimlaneHead=0;swimlaneBody=0;strokeColor=inherit;top=0;left=0;bottom=0;right=0;collapsible=0;dropTarget=0;fillColor=none;points=[[0,0.5],[1,0.5]];portConstraint=eastwest;fontSize=16;" parent="r0z94dYXCMPsbsiVsmT_-178" vertex="1">
          <mxGeometry y="240" width="181" height="57" as="geometry" />
        </mxCell>
        <mxCell id="r0z94dYXCMPsbsiVsmT_-188" value="String" style="shape=partialRectangle;html=1;whiteSpace=wrap;connectable=0;strokeColor=inherit;overflow=hidden;fillColor=none;top=0;left=0;bottom=0;right=0;pointerEvents=1;fontSize=12;" parent="r0z94dYXCMPsbsiVsmT_-187" vertex="1">
          <mxGeometry width="60" height="57" as="geometry">
            <mxRectangle width="60" height="57" as="alternateBounds" />
          </mxGeometry>
        </mxCell>
        <mxCell id="r0z94dYXCMPsbsiVsmT_-189" value="City" style="shape=partialRectangle;html=1;whiteSpace=wrap;connectable=0;strokeColor=inherit;overflow=hidden;fillColor=none;top=0;left=0;bottom=0;right=0;pointerEvents=1;fontSize=12;" parent="r0z94dYXCMPsbsiVsmT_-187" vertex="1">
          <mxGeometry x="60" width="70" height="57" as="geometry">
            <mxRectangle width="70" height="57" as="alternateBounds" />
          </mxGeometry>
        </mxCell>
        <mxCell id="r0z94dYXCMPsbsiVsmT_-190" value="" style="shape=partialRectangle;html=1;whiteSpace=wrap;connectable=0;strokeColor=inherit;overflow=hidden;fillColor=none;top=0;left=0;bottom=0;right=0;pointerEvents=1;fontSize=12;" parent="r0z94dYXCMPsbsiVsmT_-187" vertex="1">
          <mxGeometry x="130" width="51" height="57" as="geometry">
            <mxRectangle width="51" height="57" as="alternateBounds" />
          </mxGeometry>
        </mxCell>
        <mxCell id="r0z94dYXCMPsbsiVsmT_-197" style="shape=tableRow;horizontal=0;startSize=0;swimlaneHead=0;swimlaneBody=0;strokeColor=inherit;top=0;left=0;bottom=0;right=0;collapsible=0;dropTarget=0;fillColor=none;points=[[0,0.5],[1,0.5]];portConstraint=eastwest;fontSize=16;" parent="r0z94dYXCMPsbsiVsmT_-178" vertex="1">
          <mxGeometry y="297" width="181" height="57" as="geometry" />
        </mxCell>
        <mxCell id="r0z94dYXCMPsbsiVsmT_-198" value="String" style="shape=partialRectangle;html=1;whiteSpace=wrap;connectable=0;strokeColor=inherit;overflow=hidden;fillColor=none;top=0;left=0;bottom=0;right=0;pointerEvents=1;fontSize=12;" parent="r0z94dYXCMPsbsiVsmT_-197" vertex="1">
          <mxGeometry width="60" height="57" as="geometry">
            <mxRectangle width="60" height="57" as="alternateBounds" />
          </mxGeometry>
        </mxCell>
        <mxCell id="r0z94dYXCMPsbsiVsmT_-199" value="Postal Code" style="shape=partialRectangle;html=1;whiteSpace=wrap;connectable=0;strokeColor=inherit;overflow=hidden;fillColor=none;top=0;left=0;bottom=0;right=0;pointerEvents=1;fontSize=12;" parent="r0z94dYXCMPsbsiVsmT_-197" vertex="1">
          <mxGeometry x="60" width="70" height="57" as="geometry">
            <mxRectangle width="70" height="57" as="alternateBounds" />
          </mxGeometry>
        </mxCell>
        <mxCell id="r0z94dYXCMPsbsiVsmT_-200" style="shape=partialRectangle;html=1;whiteSpace=wrap;connectable=0;strokeColor=inherit;overflow=hidden;fillColor=none;top=0;left=0;bottom=0;right=0;pointerEvents=1;fontSize=12;" parent="r0z94dYXCMPsbsiVsmT_-197" vertex="1">
          <mxGeometry x="130" width="51" height="57" as="geometry">
            <mxRectangle width="51" height="57" as="alternateBounds" />
          </mxGeometry>
        </mxCell>
        <mxCell id="r0z94dYXCMPsbsiVsmT_-209" style="shape=tableRow;horizontal=0;startSize=0;swimlaneHead=0;swimlaneBody=0;strokeColor=inherit;top=0;left=0;bottom=0;right=0;collapsible=0;dropTarget=0;fillColor=none;points=[[0,0.5],[1,0.5]];portConstraint=eastwest;fontSize=16;" parent="r0z94dYXCMPsbsiVsmT_-178" vertex="1">
          <mxGeometry y="354" width="181" height="57" as="geometry" />
        </mxCell>
        <mxCell id="r0z94dYXCMPsbsiVsmT_-210" value="Boolean" style="shape=partialRectangle;html=1;whiteSpace=wrap;connectable=0;strokeColor=inherit;overflow=hidden;fillColor=none;top=0;left=0;bottom=0;right=0;pointerEvents=1;fontSize=12;" parent="r0z94dYXCMPsbsiVsmT_-209" vertex="1">
          <mxGeometry width="60" height="57" as="geometry">
            <mxRectangle width="60" height="57" as="alternateBounds" />
          </mxGeometry>
        </mxCell>
        <mxCell id="r0z94dYXCMPsbsiVsmT_-211" value="is_default" style="shape=partialRectangle;html=1;whiteSpace=wrap;connectable=0;strokeColor=inherit;overflow=hidden;fillColor=none;top=0;left=0;bottom=0;right=0;pointerEvents=1;fontSize=12;" parent="r0z94dYXCMPsbsiVsmT_-209" vertex="1">
          <mxGeometry x="60" width="70" height="57" as="geometry">
            <mxRectangle width="70" height="57" as="alternateBounds" />
          </mxGeometry>
        </mxCell>
        <mxCell id="r0z94dYXCMPsbsiVsmT_-212" value="default = false" style="shape=partialRectangle;html=1;whiteSpace=wrap;connectable=0;strokeColor=inherit;overflow=hidden;fillColor=none;top=0;left=0;bottom=0;right=0;pointerEvents=1;fontSize=12;" parent="r0z94dYXCMPsbsiVsmT_-209" vertex="1">
          <mxGeometry x="130" width="51" height="57" as="geometry">
            <mxRectangle width="51" height="57" as="alternateBounds" />
          </mxGeometry>
        </mxCell>
        <mxCell id="r0z94dYXCMPsbsiVsmT_-213" value="Customer can refuse to save his address.&lt;br&gt;&lt;br&gt;He can insert it every time he places an order." style="shape=note;size=20;whiteSpace=wrap;html=1;" parent="1" vertex="1">
          <mxGeometry x="364" y="10" width="100" height="100" as="geometry" />
        </mxCell>
        <mxCell id="r0z94dYXCMPsbsiVsmT_-214" value="" style="edgeStyle=entityRelationEdgeStyle;fontSize=12;html=1;endArrow=ERzeroToMany;endFill=1;rounded=0;" parent="1" source="r0z94dYXCMPsbsiVsmT_-91" target="r0z94dYXCMPsbsiVsmT_-179" edge="1">
          <mxGeometry width="100" height="100" relative="1" as="geometry">
            <mxPoint x="240" y="390" as="sourcePoint" />
            <mxPoint x="340" y="290" as="targetPoint" />
          </mxGeometry>
        </mxCell>
        <mxCell id="r0z94dYXCMPsbsiVsmT_-216" value="Cart" style="shape=table;startSize=30;container=1;collapsible=0;childLayout=tableLayout;strokeColor=default;fontSize=16;" parent="1" vertex="1">
          <mxGeometry x="10" y="700" width="180" height="270" as="geometry" />
        </mxCell>
        <mxCell id="r0z94dYXCMPsbsiVsmT_-217" value="" style="shape=tableRow;horizontal=0;startSize=0;swimlaneHead=0;swimlaneBody=0;strokeColor=inherit;top=0;left=0;bottom=0;right=0;collapsible=0;dropTarget=0;fillColor=none;points=[[0,0.5],[1,0.5]];portConstraint=eastwest;fontSize=16;" parent="r0z94dYXCMPsbsiVsmT_-216" vertex="1">
          <mxGeometry y="30" width="180" height="60" as="geometry" />
        </mxCell>
        <mxCell id="r0z94dYXCMPsbsiVsmT_-218" value="&lt;span&gt;UUID&lt;/span&gt;" style="shape=partialRectangle;html=1;whiteSpace=wrap;connectable=0;strokeColor=inherit;overflow=hidden;fillColor=none;top=0;left=0;bottom=0;right=0;pointerEvents=1;fontSize=11;align=center;" parent="r0z94dYXCMPsbsiVsmT_-217" vertex="1">
          <mxGeometry width="60" height="60" as="geometry">
            <mxRectangle width="60" height="60" as="alternateBounds" />
          </mxGeometry>
        </mxCell>
        <mxCell id="r0z94dYXCMPsbsiVsmT_-219" value="cart_id" style="shape=partialRectangle;html=1;whiteSpace=wrap;connectable=0;strokeColor=inherit;overflow=hidden;fillColor=none;top=0;left=0;bottom=0;right=0;pointerEvents=1;fontSize=11;" parent="r0z94dYXCMPsbsiVsmT_-217" vertex="1">
          <mxGeometry x="60" width="60" height="60" as="geometry">
            <mxRectangle width="60" height="60" as="alternateBounds" />
          </mxGeometry>
        </mxCell>
        <mxCell id="r0z94dYXCMPsbsiVsmT_-220" value="PK" style="shape=partialRectangle;html=1;whiteSpace=wrap;connectable=0;strokeColor=inherit;overflow=hidden;fillColor=none;top=0;left=0;bottom=0;right=0;pointerEvents=1;fontSize=11;" parent="r0z94dYXCMPsbsiVsmT_-217" vertex="1">
          <mxGeometry x="120" width="60" height="60" as="geometry">
            <mxRectangle width="60" height="60" as="alternateBounds" />
          </mxGeometry>
        </mxCell>
        <mxCell id="r0z94dYXCMPsbsiVsmT_-221" value="" style="shape=tableRow;horizontal=0;startSize=0;swimlaneHead=0;swimlaneBody=0;strokeColor=inherit;top=0;left=0;bottom=0;right=0;collapsible=0;dropTarget=0;fillColor=none;points=[[0,0.5],[1,0.5]];portConstraint=eastwest;fontSize=16;" parent="r0z94dYXCMPsbsiVsmT_-216" vertex="1">
          <mxGeometry y="90" width="180" height="60" as="geometry" />
        </mxCell>
        <mxCell id="r0z94dYXCMPsbsiVsmT_-222" value="UUID" style="shape=partialRectangle;html=1;whiteSpace=wrap;connectable=0;strokeColor=inherit;overflow=hidden;fillColor=none;top=0;left=0;bottom=0;right=0;pointerEvents=1;fontSize=11;" parent="r0z94dYXCMPsbsiVsmT_-221" vertex="1">
          <mxGeometry width="60" height="60" as="geometry">
            <mxRectangle width="60" height="60" as="alternateBounds" />
          </mxGeometry>
        </mxCell>
        <mxCell id="r0z94dYXCMPsbsiVsmT_-223" value="customer_id" style="shape=partialRectangle;html=1;whiteSpace=wrap;connectable=0;strokeColor=inherit;overflow=hidden;fillColor=none;top=0;left=0;bottom=0;right=0;pointerEvents=1;fontSize=11;" parent="r0z94dYXCMPsbsiVsmT_-221" vertex="1">
          <mxGeometry x="60" width="60" height="60" as="geometry">
            <mxRectangle width="60" height="60" as="alternateBounds" />
          </mxGeometry>
        </mxCell>
        <mxCell id="r0z94dYXCMPsbsiVsmT_-224" value="FK" style="shape=partialRectangle;html=1;whiteSpace=wrap;connectable=0;strokeColor=inherit;overflow=hidden;fillColor=none;top=0;left=0;bottom=0;right=0;pointerEvents=1;fontSize=11;" parent="r0z94dYXCMPsbsiVsmT_-221" vertex="1">
          <mxGeometry x="120" width="60" height="60" as="geometry">
            <mxRectangle width="60" height="60" as="alternateBounds" />
          </mxGeometry>
        </mxCell>
        <mxCell id="r0z94dYXCMPsbsiVsmT_-225" value="" style="shape=tableRow;horizontal=0;startSize=0;swimlaneHead=0;swimlaneBody=0;strokeColor=inherit;top=0;left=0;bottom=0;right=0;collapsible=0;dropTarget=0;fillColor=none;points=[[0,0.5],[1,0.5]];portConstraint=eastwest;fontSize=16;" parent="r0z94dYXCMPsbsiVsmT_-216" vertex="1">
          <mxGeometry y="150" width="180" height="60" as="geometry" />
        </mxCell>
        <mxCell id="r0z94dYXCMPsbsiVsmT_-226" value="Timestamp" style="shape=partialRectangle;html=1;whiteSpace=wrap;connectable=0;strokeColor=inherit;overflow=hidden;fillColor=none;top=0;left=0;bottom=0;right=0;pointerEvents=1;fontSize=11;" parent="r0z94dYXCMPsbsiVsmT_-225" vertex="1">
          <mxGeometry width="60" height="60" as="geometry">
            <mxRectangle width="60" height="60" as="alternateBounds" />
          </mxGeometry>
        </mxCell>
        <mxCell id="r0z94dYXCMPsbsiVsmT_-227" value="created_at" style="shape=partialRectangle;html=1;whiteSpace=wrap;connectable=0;strokeColor=inherit;overflow=hidden;fillColor=none;top=0;left=0;bottom=0;right=0;pointerEvents=1;fontSize=11;" parent="r0z94dYXCMPsbsiVsmT_-225" vertex="1">
          <mxGeometry x="60" width="60" height="60" as="geometry">
            <mxRectangle width="60" height="60" as="alternateBounds" />
          </mxGeometry>
        </mxCell>
        <mxCell id="r0z94dYXCMPsbsiVsmT_-228" value="Not Null" style="shape=partialRectangle;html=1;whiteSpace=wrap;connectable=0;strokeColor=inherit;overflow=hidden;fillColor=none;top=0;left=0;bottom=0;right=0;pointerEvents=1;fontSize=11;" parent="r0z94dYXCMPsbsiVsmT_-225" vertex="1">
          <mxGeometry x="120" width="60" height="60" as="geometry">
            <mxRectangle width="60" height="60" as="alternateBounds" />
          </mxGeometry>
        </mxCell>
        <mxCell id="r0z94dYXCMPsbsiVsmT_-232" style="shape=tableRow;horizontal=0;startSize=0;swimlaneHead=0;swimlaneBody=0;strokeColor=inherit;top=0;left=0;bottom=0;right=0;collapsible=0;dropTarget=0;fillColor=none;points=[[0,0.5],[1,0.5]];portConstraint=eastwest;fontSize=16;" parent="r0z94dYXCMPsbsiVsmT_-216" vertex="1">
          <mxGeometry y="210" width="180" height="60" as="geometry" />
        </mxCell>
        <mxCell id="r0z94dYXCMPsbsiVsmT_-233" value="Timestamp" style="shape=partialRectangle;html=1;whiteSpace=wrap;connectable=0;strokeColor=inherit;overflow=hidden;fillColor=none;top=0;left=0;bottom=0;right=0;pointerEvents=1;fontSize=11;" parent="r0z94dYXCMPsbsiVsmT_-232" vertex="1">
          <mxGeometry width="60" height="60" as="geometry">
            <mxRectangle width="60" height="60" as="alternateBounds" />
          </mxGeometry>
        </mxCell>
        <mxCell id="r0z94dYXCMPsbsiVsmT_-234" value="updated_at" style="shape=partialRectangle;html=1;whiteSpace=wrap;connectable=0;strokeColor=inherit;overflow=hidden;fillColor=none;top=0;left=0;bottom=0;right=0;pointerEvents=1;fontSize=11;" parent="r0z94dYXCMPsbsiVsmT_-232" vertex="1">
          <mxGeometry x="60" width="60" height="60" as="geometry">
            <mxRectangle width="60" height="60" as="alternateBounds" />
          </mxGeometry>
        </mxCell>
        <mxCell id="r0z94dYXCMPsbsiVsmT_-235" value="Not Null" style="shape=partialRectangle;html=1;whiteSpace=wrap;connectable=0;strokeColor=inherit;overflow=hidden;fillColor=none;top=0;left=0;bottom=0;right=0;pointerEvents=1;fontSize=11;" parent="r0z94dYXCMPsbsiVsmT_-232" vertex="1">
          <mxGeometry x="120" width="60" height="60" as="geometry">
            <mxRectangle width="60" height="60" as="alternateBounds" />
          </mxGeometry>
        </mxCell>
        <mxCell id="r0z94dYXCMPsbsiVsmT_-229" value="" style="edgeStyle=entityRelationEdgeStyle;fontSize=12;html=1;endArrow=ERmandOne;startArrow=ERmandOne;rounded=0;entryX=0.5;entryY=1;entryDx=0;entryDy=0;exitX=0.5;exitY=0;exitDx=0;exitDy=0;" parent="1" source="r0z94dYXCMPsbsiVsmT_-216" target="r0z94dYXCMPsbsiVsmT_-158" edge="1">
          <mxGeometry width="100" height="100" relative="1" as="geometry">
            <mxPoint x="100" y="680" as="sourcePoint" />
            <mxPoint x="200" y="580" as="targetPoint" />
          </mxGeometry>
        </mxCell>
        <mxCell id="r0z94dYXCMPsbsiVsmT_-230" value="One Active Cart&lt;br&gt;per&lt;br&gt;Customer." style="shape=note;size=20;whiteSpace=wrap;html=1;" parent="1" vertex="1">
          <mxGeometry x="-140" y="670" width="100" height="100" as="geometry" />
        </mxCell>
        <mxCell id="r0z94dYXCMPsbsiVsmT_-231" value="" style="endArrow=classic;html=1;rounded=0;exitX=0;exitY=0.5;exitDx=0;exitDy=0;" parent="1" source="r0z94dYXCMPsbsiVsmT_-221" target="r0z94dYXCMPsbsiVsmT_-230" edge="1">
          <mxGeometry width="50" height="50" relative="1" as="geometry">
            <mxPoint x="260" y="890" as="sourcePoint" />
            <mxPoint x="310" y="840" as="targetPoint" />
          </mxGeometry>
        </mxCell>
        <mxCell id="r0z94dYXCMPsbsiVsmT_-236" value="customer_payment_methods" style="shape=table;startSize=30;container=1;collapsible=0;childLayout=tableLayout;strokeColor=default;fontSize=16;" parent="1" vertex="1">
          <mxGeometry x="-335" y="210" width="265" height="430" as="geometry" />
        </mxCell>
        <mxCell id="r0z94dYXCMPsbsiVsmT_-237" value="" style="shape=tableRow;horizontal=0;startSize=0;swimlaneHead=0;swimlaneBody=0;strokeColor=inherit;top=0;left=0;bottom=0;right=0;collapsible=0;dropTarget=0;fillColor=none;points=[[0,0.5],[1,0.5]];portConstraint=eastwest;fontSize=16;" parent="r0z94dYXCMPsbsiVsmT_-236" vertex="1">
          <mxGeometry y="30" width="265" height="40" as="geometry" />
        </mxCell>
        <mxCell id="r0z94dYXCMPsbsiVsmT_-238" value="UUID" style="shape=partialRectangle;html=1;whiteSpace=wrap;connectable=0;strokeColor=inherit;overflow=hidden;fillColor=none;top=0;left=0;bottom=0;right=0;pointerEvents=1;fontSize=12;" parent="r0z94dYXCMPsbsiVsmT_-237" vertex="1">
          <mxGeometry width="71" height="40" as="geometry">
            <mxRectangle width="71" height="40" as="alternateBounds" />
          </mxGeometry>
        </mxCell>
        <mxCell id="r0z94dYXCMPsbsiVsmT_-239" value="id" style="shape=partialRectangle;html=1;whiteSpace=wrap;connectable=0;strokeColor=inherit;overflow=hidden;fillColor=none;top=0;left=0;bottom=0;right=0;pointerEvents=1;fontSize=12;" parent="r0z94dYXCMPsbsiVsmT_-237" vertex="1">
          <mxGeometry x="71" width="154" height="40" as="geometry">
            <mxRectangle width="154" height="40" as="alternateBounds" />
          </mxGeometry>
        </mxCell>
        <mxCell id="r0z94dYXCMPsbsiVsmT_-240" value="PK" style="shape=partialRectangle;html=1;whiteSpace=wrap;connectable=0;strokeColor=inherit;overflow=hidden;fillColor=none;top=0;left=0;bottom=0;right=0;pointerEvents=1;fontSize=12;" parent="r0z94dYXCMPsbsiVsmT_-237" vertex="1">
          <mxGeometry x="225" width="40" height="40" as="geometry">
            <mxRectangle width="40" height="40" as="alternateBounds" />
          </mxGeometry>
        </mxCell>
        <mxCell id="r0z94dYXCMPsbsiVsmT_-250" style="shape=tableRow;horizontal=0;startSize=0;swimlaneHead=0;swimlaneBody=0;strokeColor=inherit;top=0;left=0;bottom=0;right=0;collapsible=0;dropTarget=0;fillColor=none;points=[[0,0.5],[1,0.5]];portConstraint=eastwest;fontSize=16;" parent="r0z94dYXCMPsbsiVsmT_-236" vertex="1">
          <mxGeometry y="70" width="265" height="40" as="geometry" />
        </mxCell>
        <mxCell id="r0z94dYXCMPsbsiVsmT_-251" value="UUID" style="shape=partialRectangle;html=1;whiteSpace=wrap;connectable=0;strokeColor=inherit;overflow=hidden;fillColor=none;top=0;left=0;bottom=0;right=0;pointerEvents=1;fontSize=12;" parent="r0z94dYXCMPsbsiVsmT_-250" vertex="1">
          <mxGeometry width="71" height="40" as="geometry">
            <mxRectangle width="71" height="40" as="alternateBounds" />
          </mxGeometry>
        </mxCell>
        <mxCell id="r0z94dYXCMPsbsiVsmT_-252" value="customer_id" style="shape=partialRectangle;html=1;whiteSpace=wrap;connectable=0;strokeColor=inherit;overflow=hidden;fillColor=none;top=0;left=0;bottom=0;right=0;pointerEvents=1;fontSize=12;" parent="r0z94dYXCMPsbsiVsmT_-250" vertex="1">
          <mxGeometry x="71" width="154" height="40" as="geometry">
            <mxRectangle width="154" height="40" as="alternateBounds" />
          </mxGeometry>
        </mxCell>
        <mxCell id="r0z94dYXCMPsbsiVsmT_-253" value="FK" style="shape=partialRectangle;html=1;whiteSpace=wrap;connectable=0;strokeColor=inherit;overflow=hidden;fillColor=none;top=0;left=0;bottom=0;right=0;pointerEvents=1;fontSize=12;" parent="r0z94dYXCMPsbsiVsmT_-250" vertex="1">
          <mxGeometry x="225" width="40" height="40" as="geometry">
            <mxRectangle width="40" height="40" as="alternateBounds" />
          </mxGeometry>
        </mxCell>
        <mxCell id="r0z94dYXCMPsbsiVsmT_-241" value="" style="shape=tableRow;horizontal=0;startSize=0;swimlaneHead=0;swimlaneBody=0;strokeColor=inherit;top=0;left=0;bottom=0;right=0;collapsible=0;dropTarget=0;fillColor=none;points=[[0,0.5],[1,0.5]];portConstraint=eastwest;fontSize=16;" parent="r0z94dYXCMPsbsiVsmT_-236" vertex="1">
          <mxGeometry y="110" width="265" height="40" as="geometry" />
        </mxCell>
        <mxCell id="r0z94dYXCMPsbsiVsmT_-242" value="String" style="shape=partialRectangle;html=1;whiteSpace=wrap;connectable=0;strokeColor=inherit;overflow=hidden;fillColor=none;top=0;left=0;bottom=0;right=0;pointerEvents=1;fontSize=12;" parent="r0z94dYXCMPsbsiVsmT_-241" vertex="1">
          <mxGeometry width="71" height="40" as="geometry">
            <mxRectangle width="71" height="40" as="alternateBounds" />
          </mxGeometry>
        </mxCell>
        <mxCell id="r0z94dYXCMPsbsiVsmT_-243" value="&lt;font style=&quot;font-size: 9px;&quot;&gt;provider&lt;/font&gt;" style="shape=partialRectangle;html=1;whiteSpace=wrap;connectable=0;strokeColor=inherit;overflow=hidden;fillColor=none;top=0;left=0;bottom=0;right=0;pointerEvents=1;fontSize=12;" parent="r0z94dYXCMPsbsiVsmT_-241" vertex="1">
          <mxGeometry x="71" width="154" height="40" as="geometry">
            <mxRectangle width="154" height="40" as="alternateBounds" />
          </mxGeometry>
        </mxCell>
        <mxCell id="r0z94dYXCMPsbsiVsmT_-244" value="" style="shape=partialRectangle;html=1;whiteSpace=wrap;connectable=0;strokeColor=inherit;overflow=hidden;fillColor=none;top=0;left=0;bottom=0;right=0;pointerEvents=1;fontSize=12;" parent="r0z94dYXCMPsbsiVsmT_-241" vertex="1">
          <mxGeometry x="225" width="40" height="40" as="geometry">
            <mxRectangle width="40" height="40" as="alternateBounds" />
          </mxGeometry>
        </mxCell>
        <mxCell id="r0z94dYXCMPsbsiVsmT_-245" value="" style="shape=tableRow;horizontal=0;startSize=0;swimlaneHead=0;swimlaneBody=0;strokeColor=inherit;top=0;left=0;bottom=0;right=0;collapsible=0;dropTarget=0;fillColor=none;points=[[0,0.5],[1,0.5]];portConstraint=eastwest;fontSize=16;" parent="r0z94dYXCMPsbsiVsmT_-236" vertex="1">
          <mxGeometry y="150" width="265" height="40" as="geometry" />
        </mxCell>
        <mxCell id="r0z94dYXCMPsbsiVsmT_-246" value="text" style="shape=partialRectangle;html=1;whiteSpace=wrap;connectable=0;strokeColor=inherit;overflow=hidden;fillColor=none;top=0;left=0;bottom=0;right=0;pointerEvents=1;fontSize=12;" parent="r0z94dYXCMPsbsiVsmT_-245" vertex="1">
          <mxGeometry width="71" height="40" as="geometry">
            <mxRectangle width="71" height="40" as="alternateBounds" />
          </mxGeometry>
        </mxCell>
        <mxCell id="r0z94dYXCMPsbsiVsmT_-247" value="&lt;font style=&quot;font-size: 10px;&quot;&gt;&lt;code style=&quot;&quot; data-end=&quot;507&quot; data-start=&quot;479&quot;&gt;provider_payment_method_id&lt;/code&gt;&amp;nbsp;&lt;/font&gt;" style="shape=partialRectangle;html=1;whiteSpace=wrap;connectable=0;strokeColor=inherit;overflow=hidden;fillColor=none;top=0;left=0;bottom=0;right=0;pointerEvents=1;fontSize=12;" parent="r0z94dYXCMPsbsiVsmT_-245" vertex="1">
          <mxGeometry x="71" width="154" height="40" as="geometry">
            <mxRectangle width="154" height="40" as="alternateBounds" />
          </mxGeometry>
        </mxCell>
        <mxCell id="r0z94dYXCMPsbsiVsmT_-248" value="" style="shape=partialRectangle;html=1;whiteSpace=wrap;connectable=0;strokeColor=inherit;overflow=hidden;fillColor=none;top=0;left=0;bottom=0;right=0;pointerEvents=1;fontSize=12;" parent="r0z94dYXCMPsbsiVsmT_-245" vertex="1">
          <mxGeometry x="225" width="40" height="40" as="geometry">
            <mxRectangle width="40" height="40" as="alternateBounds" />
          </mxGeometry>
        </mxCell>
        <mxCell id="r0z94dYXCMPsbsiVsmT_-258" style="shape=tableRow;horizontal=0;startSize=0;swimlaneHead=0;swimlaneBody=0;strokeColor=inherit;top=0;left=0;bottom=0;right=0;collapsible=0;dropTarget=0;fillColor=none;points=[[0,0.5],[1,0.5]];portConstraint=eastwest;fontSize=16;" parent="r0z94dYXCMPsbsiVsmT_-236" vertex="1">
          <mxGeometry y="190" width="265" height="40" as="geometry" />
        </mxCell>
        <mxCell id="r0z94dYXCMPsbsiVsmT_-259" value="String" style="shape=partialRectangle;html=1;whiteSpace=wrap;connectable=0;strokeColor=inherit;overflow=hidden;fillColor=none;top=0;left=0;bottom=0;right=0;pointerEvents=1;fontSize=12;" parent="r0z94dYXCMPsbsiVsmT_-258" vertex="1">
          <mxGeometry width="71" height="40" as="geometry">
            <mxRectangle width="71" height="40" as="alternateBounds" />
          </mxGeometry>
        </mxCell>
        <mxCell id="r0z94dYXCMPsbsiVsmT_-260" value="brand" style="shape=partialRectangle;html=1;whiteSpace=wrap;connectable=0;strokeColor=inherit;overflow=hidden;fillColor=none;top=0;left=0;bottom=0;right=0;pointerEvents=1;fontSize=12;" parent="r0z94dYXCMPsbsiVsmT_-258" vertex="1">
          <mxGeometry x="71" width="154" height="40" as="geometry">
            <mxRectangle width="154" height="40" as="alternateBounds" />
          </mxGeometry>
        </mxCell>
        <mxCell id="r0z94dYXCMPsbsiVsmT_-261" style="shape=partialRectangle;html=1;whiteSpace=wrap;connectable=0;strokeColor=inherit;overflow=hidden;fillColor=none;top=0;left=0;bottom=0;right=0;pointerEvents=1;fontSize=12;" parent="r0z94dYXCMPsbsiVsmT_-258" vertex="1">
          <mxGeometry x="225" width="40" height="40" as="geometry">
            <mxRectangle width="40" height="40" as="alternateBounds" />
          </mxGeometry>
        </mxCell>
        <mxCell id="r0z94dYXCMPsbsiVsmT_-280" style="shape=tableRow;horizontal=0;startSize=0;swimlaneHead=0;swimlaneBody=0;strokeColor=inherit;top=0;left=0;bottom=0;right=0;collapsible=0;dropTarget=0;fillColor=none;points=[[0,0.5],[1,0.5]];portConstraint=eastwest;fontSize=16;" parent="r0z94dYXCMPsbsiVsmT_-236" vertex="1">
          <mxGeometry y="230" width="265" height="40" as="geometry" />
        </mxCell>
        <mxCell id="r0z94dYXCMPsbsiVsmT_-281" value="char(4)" style="shape=partialRectangle;html=1;whiteSpace=wrap;connectable=0;strokeColor=inherit;overflow=hidden;fillColor=none;top=0;left=0;bottom=0;right=0;pointerEvents=1;fontSize=12;" parent="r0z94dYXCMPsbsiVsmT_-280" vertex="1">
          <mxGeometry width="71" height="40" as="geometry">
            <mxRectangle width="71" height="40" as="alternateBounds" />
          </mxGeometry>
        </mxCell>
        <mxCell id="r0z94dYXCMPsbsiVsmT_-282" value="last_4" style="shape=partialRectangle;html=1;whiteSpace=wrap;connectable=0;strokeColor=inherit;overflow=hidden;fillColor=none;top=0;left=0;bottom=0;right=0;pointerEvents=1;fontSize=12;" parent="r0z94dYXCMPsbsiVsmT_-280" vertex="1">
          <mxGeometry x="71" width="154" height="40" as="geometry">
            <mxRectangle width="154" height="40" as="alternateBounds" />
          </mxGeometry>
        </mxCell>
        <mxCell id="r0z94dYXCMPsbsiVsmT_-283" style="shape=partialRectangle;html=1;whiteSpace=wrap;connectable=0;strokeColor=inherit;overflow=hidden;fillColor=none;top=0;left=0;bottom=0;right=0;pointerEvents=1;fontSize=12;" parent="r0z94dYXCMPsbsiVsmT_-280" vertex="1">
          <mxGeometry x="225" width="40" height="40" as="geometry">
            <mxRectangle width="40" height="40" as="alternateBounds" />
          </mxGeometry>
        </mxCell>
        <mxCell id="r0z94dYXCMPsbsiVsmT_-264" style="shape=tableRow;horizontal=0;startSize=0;swimlaneHead=0;swimlaneBody=0;strokeColor=inherit;top=0;left=0;bottom=0;right=0;collapsible=0;dropTarget=0;fillColor=none;points=[[0,0.5],[1,0.5]];portConstraint=eastwest;fontSize=16;" parent="r0z94dYXCMPsbsiVsmT_-236" vertex="1">
          <mxGeometry y="270" width="265" height="40" as="geometry" />
        </mxCell>
        <mxCell id="r0z94dYXCMPsbsiVsmT_-265" value="Timestamp" style="shape=partialRectangle;html=1;whiteSpace=wrap;connectable=0;strokeColor=inherit;overflow=hidden;fillColor=none;top=0;left=0;bottom=0;right=0;pointerEvents=1;fontSize=12;" parent="r0z94dYXCMPsbsiVsmT_-264" vertex="1">
          <mxGeometry width="71" height="40" as="geometry">
            <mxRectangle width="71" height="40" as="alternateBounds" />
          </mxGeometry>
        </mxCell>
        <mxCell id="r0z94dYXCMPsbsiVsmT_-266" value="&#xa;&lt;span style=&quot;color: rgb(255, 255, 255); font-family: Helvetica; font-size: 12px; font-style: normal; font-variant-ligatures: normal; font-variant-caps: normal; font-weight: 400; letter-spacing: normal; orphans: 2; text-align: center; text-indent: 0px; text-transform: none; widows: 2; word-spacing: 0px; -webkit-text-stroke-width: 0px; white-space: normal; background-color: rgb(27, 29, 30); text-decoration-thickness: initial; text-decoration-style: initial; text-decoration-color: initial; display: inline !important; float: none;&quot;&gt;created_at&lt;/span&gt;&#xa;&#xa;" style="shape=partialRectangle;html=1;whiteSpace=wrap;connectable=0;strokeColor=inherit;overflow=hidden;fillColor=none;top=0;left=0;bottom=0;right=0;pointerEvents=1;fontSize=12;" parent="r0z94dYXCMPsbsiVsmT_-264" vertex="1">
          <mxGeometry x="71" width="154" height="40" as="geometry">
            <mxRectangle width="154" height="40" as="alternateBounds" />
          </mxGeometry>
        </mxCell>
        <mxCell id="r0z94dYXCMPsbsiVsmT_-267" style="shape=partialRectangle;html=1;whiteSpace=wrap;connectable=0;strokeColor=inherit;overflow=hidden;fillColor=none;top=0;left=0;bottom=0;right=0;pointerEvents=1;fontSize=12;" parent="r0z94dYXCMPsbsiVsmT_-264" vertex="1">
          <mxGeometry x="225" width="40" height="40" as="geometry">
            <mxRectangle width="40" height="40" as="alternateBounds" />
          </mxGeometry>
        </mxCell>
        <mxCell id="r0z94dYXCMPsbsiVsmT_-268" style="shape=tableRow;horizontal=0;startSize=0;swimlaneHead=0;swimlaneBody=0;strokeColor=inherit;top=0;left=0;bottom=0;right=0;collapsible=0;dropTarget=0;fillColor=none;points=[[0,0.5],[1,0.5]];portConstraint=eastwest;fontSize=16;" parent="r0z94dYXCMPsbsiVsmT_-236" vertex="1">
          <mxGeometry y="310" width="265" height="40" as="geometry" />
        </mxCell>
        <mxCell id="r0z94dYXCMPsbsiVsmT_-269" value="Small&lt;br&gt;Int" style="shape=partialRectangle;html=1;whiteSpace=wrap;connectable=0;strokeColor=inherit;overflow=hidden;fillColor=none;top=0;left=0;bottom=0;right=0;pointerEvents=1;fontSize=12;" parent="r0z94dYXCMPsbsiVsmT_-268" vertex="1">
          <mxGeometry width="71" height="40" as="geometry">
            <mxRectangle width="71" height="40" as="alternateBounds" />
          </mxGeometry>
        </mxCell>
        <mxCell id="r0z94dYXCMPsbsiVsmT_-270" value="year_exp" style="shape=partialRectangle;html=1;whiteSpace=wrap;connectable=0;strokeColor=inherit;overflow=hidden;fillColor=none;top=0;left=0;bottom=0;right=0;pointerEvents=1;fontSize=12;" parent="r0z94dYXCMPsbsiVsmT_-268" vertex="1">
          <mxGeometry x="71" width="154" height="40" as="geometry">
            <mxRectangle width="154" height="40" as="alternateBounds" />
          </mxGeometry>
        </mxCell>
        <mxCell id="r0z94dYXCMPsbsiVsmT_-271" style="shape=partialRectangle;html=1;whiteSpace=wrap;connectable=0;strokeColor=inherit;overflow=hidden;fillColor=none;top=0;left=0;bottom=0;right=0;pointerEvents=1;fontSize=12;" parent="r0z94dYXCMPsbsiVsmT_-268" vertex="1">
          <mxGeometry x="225" width="40" height="40" as="geometry">
            <mxRectangle width="40" height="40" as="alternateBounds" />
          </mxGeometry>
        </mxCell>
        <mxCell id="r0z94dYXCMPsbsiVsmT_-272" style="shape=tableRow;horizontal=0;startSize=0;swimlaneHead=0;swimlaneBody=0;strokeColor=inherit;top=0;left=0;bottom=0;right=0;collapsible=0;dropTarget=0;fillColor=none;points=[[0,0.5],[1,0.5]];portConstraint=eastwest;fontSize=16;" parent="r0z94dYXCMPsbsiVsmT_-236" vertex="1">
          <mxGeometry y="350" width="265" height="40" as="geometry" />
        </mxCell>
        <mxCell id="r0z94dYXCMPsbsiVsmT_-273" value="Small&lt;br&gt;Int" style="shape=partialRectangle;html=1;whiteSpace=wrap;connectable=0;strokeColor=inherit;overflow=hidden;fillColor=none;top=0;left=0;bottom=0;right=0;pointerEvents=1;fontSize=12;" parent="r0z94dYXCMPsbsiVsmT_-272" vertex="1">
          <mxGeometry width="71" height="40" as="geometry">
            <mxRectangle width="71" height="40" as="alternateBounds" />
          </mxGeometry>
        </mxCell>
        <mxCell id="r0z94dYXCMPsbsiVsmT_-274" value="month_exp" style="shape=partialRectangle;html=1;whiteSpace=wrap;connectable=0;strokeColor=inherit;overflow=hidden;fillColor=none;top=0;left=0;bottom=0;right=0;pointerEvents=1;fontSize=12;" parent="r0z94dYXCMPsbsiVsmT_-272" vertex="1">
          <mxGeometry x="71" width="154" height="40" as="geometry">
            <mxRectangle width="154" height="40" as="alternateBounds" />
          </mxGeometry>
        </mxCell>
        <mxCell id="r0z94dYXCMPsbsiVsmT_-275" style="shape=partialRectangle;html=1;whiteSpace=wrap;connectable=0;strokeColor=inherit;overflow=hidden;fillColor=none;top=0;left=0;bottom=0;right=0;pointerEvents=1;fontSize=12;" parent="r0z94dYXCMPsbsiVsmT_-272" vertex="1">
          <mxGeometry x="225" width="40" height="40" as="geometry">
            <mxRectangle width="40" height="40" as="alternateBounds" />
          </mxGeometry>
        </mxCell>
        <mxCell id="r0z94dYXCMPsbsiVsmT_-276" style="shape=tableRow;horizontal=0;startSize=0;swimlaneHead=0;swimlaneBody=0;strokeColor=inherit;top=0;left=0;bottom=0;right=0;collapsible=0;dropTarget=0;fillColor=none;points=[[0,0.5],[1,0.5]];portConstraint=eastwest;fontSize=16;" parent="r0z94dYXCMPsbsiVsmT_-236" vertex="1">
          <mxGeometry y="390" width="265" height="40" as="geometry" />
        </mxCell>
        <mxCell id="r0z94dYXCMPsbsiVsmT_-277" value="Boolean" style="shape=partialRectangle;html=1;whiteSpace=wrap;connectable=0;strokeColor=inherit;overflow=hidden;fillColor=none;top=0;left=0;bottom=0;right=0;pointerEvents=1;fontSize=12;" parent="r0z94dYXCMPsbsiVsmT_-276" vertex="1">
          <mxGeometry width="71" height="40" as="geometry">
            <mxRectangle width="71" height="40" as="alternateBounds" />
          </mxGeometry>
        </mxCell>
        <mxCell id="r0z94dYXCMPsbsiVsmT_-278" value="is_default" style="shape=partialRectangle;html=1;whiteSpace=wrap;connectable=0;strokeColor=inherit;overflow=hidden;fillColor=none;top=0;left=0;bottom=0;right=0;pointerEvents=1;fontSize=12;" parent="r0z94dYXCMPsbsiVsmT_-276" vertex="1">
          <mxGeometry x="71" width="154" height="40" as="geometry">
            <mxRectangle width="154" height="40" as="alternateBounds" />
          </mxGeometry>
        </mxCell>
        <mxCell id="r0z94dYXCMPsbsiVsmT_-279" value="default&lt;br&gt;false" style="shape=partialRectangle;html=1;whiteSpace=wrap;connectable=0;strokeColor=inherit;overflow=hidden;fillColor=none;top=0;left=0;bottom=0;right=0;pointerEvents=1;fontSize=12;" parent="r0z94dYXCMPsbsiVsmT_-276" vertex="1">
          <mxGeometry x="225" width="40" height="40" as="geometry">
            <mxRectangle width="40" height="40" as="alternateBounds" />
          </mxGeometry>
        </mxCell>
        <mxCell id="r0z94dYXCMPsbsiVsmT_-249" value="" style="edgeStyle=entityRelationEdgeStyle;fontSize=12;html=1;endArrow=ERzeroToMany;endFill=1;rounded=0;exitX=0;exitY=0.5;exitDx=0;exitDy=0;" parent="1" source="r0z94dYXCMPsbsiVsmT_-91" target="r0z94dYXCMPsbsiVsmT_-241" edge="1">
          <mxGeometry width="100" height="100" relative="1" as="geometry">
            <mxPoint x="-70" y="390" as="sourcePoint" />
            <mxPoint x="30" y="290" as="targetPoint" />
          </mxGeometry>
        </mxCell>
        <mxCell id="r0z94dYXCMPsbsiVsmT_-262" value="Customer can choose to save his payment info.&lt;br&gt;&lt;br&gt;Optional" style="shape=note;size=20;whiteSpace=wrap;html=1;" parent="1" vertex="1">
          <mxGeometry x="-186" y="70" width="100" height="100" as="geometry" />
        </mxCell>
        <mxCell id="r0z94dYXCMPsbsiVsmT_-263" value="" style="endArrow=classic;html=1;rounded=0;entryX=0.5;entryY=1;entryDx=0;entryDy=0;entryPerimeter=0;exitX=0.5;exitY=0;exitDx=0;exitDy=0;" parent="1" source="r0z94dYXCMPsbsiVsmT_-236" target="r0z94dYXCMPsbsiVsmT_-262" edge="1">
          <mxGeometry width="50" height="50" relative="1" as="geometry">
            <mxPoint x="90" y="260" as="sourcePoint" />
            <mxPoint x="140" y="210" as="targetPoint" />
          </mxGeometry>
        </mxCell>
        <mxCell id="r0z94dYXCMPsbsiVsmT_-284" value="Products" style="shape=table;startSize=30;container=1;collapsible=0;childLayout=tableLayout;strokeColor=default;fontSize=16;" parent="1" vertex="1">
          <mxGeometry x="580" y="270" width="210" height="579" as="geometry" />
        </mxCell>
        <mxCell id="r0z94dYXCMPsbsiVsmT_-285" value="" style="shape=tableRow;horizontal=0;startSize=0;swimlaneHead=0;swimlaneBody=0;strokeColor=inherit;top=0;left=0;bottom=0;right=0;collapsible=0;dropTarget=0;fillColor=none;points=[[0,0.5],[1,0.5]];portConstraint=eastwest;fontSize=16;" parent="r0z94dYXCMPsbsiVsmT_-284" vertex="1">
          <mxGeometry y="30" width="210" height="61" as="geometry" />
        </mxCell>
        <mxCell id="r0z94dYXCMPsbsiVsmT_-286" value="big int" style="shape=partialRectangle;html=1;whiteSpace=wrap;connectable=0;strokeColor=inherit;overflow=hidden;fillColor=none;top=0;left=0;bottom=0;right=0;pointerEvents=1;fontSize=12;" parent="r0z94dYXCMPsbsiVsmT_-285" vertex="1">
          <mxGeometry width="70" height="61" as="geometry">
            <mxRectangle width="70" height="61" as="alternateBounds" />
          </mxGeometry>
        </mxCell>
        <mxCell id="r0z94dYXCMPsbsiVsmT_-287" value="product_id" style="shape=partialRectangle;html=1;whiteSpace=wrap;connectable=0;strokeColor=inherit;overflow=hidden;fillColor=none;top=0;left=0;bottom=0;right=0;pointerEvents=1;fontSize=12;" parent="r0z94dYXCMPsbsiVsmT_-285" vertex="1">
          <mxGeometry x="70" width="70" height="61" as="geometry">
            <mxRectangle width="70" height="61" as="alternateBounds" />
          </mxGeometry>
        </mxCell>
        <mxCell id="r0z94dYXCMPsbsiVsmT_-288" value="PK&lt;br&gt;Not Null" style="shape=partialRectangle;html=1;whiteSpace=wrap;connectable=0;strokeColor=inherit;overflow=hidden;fillColor=none;top=0;left=0;bottom=0;right=0;pointerEvents=1;fontSize=12;" parent="r0z94dYXCMPsbsiVsmT_-285" vertex="1">
          <mxGeometry x="140" width="70" height="61" as="geometry">
            <mxRectangle width="70" height="61" as="alternateBounds" />
          </mxGeometry>
        </mxCell>
        <mxCell id="r0z94dYXCMPsbsiVsmT_-293" value="" style="shape=tableRow;horizontal=0;startSize=0;swimlaneHead=0;swimlaneBody=0;strokeColor=inherit;top=0;left=0;bottom=0;right=0;collapsible=0;dropTarget=0;fillColor=none;points=[[0,0.5],[1,0.5]];portConstraint=eastwest;fontSize=16;" parent="r0z94dYXCMPsbsiVsmT_-284" vertex="1">
          <mxGeometry y="91" width="210" height="61" as="geometry" />
        </mxCell>
        <mxCell id="r0z94dYXCMPsbsiVsmT_-294" value="String" style="shape=partialRectangle;html=1;whiteSpace=wrap;connectable=0;strokeColor=inherit;overflow=hidden;fillColor=none;top=0;left=0;bottom=0;right=0;pointerEvents=1;fontSize=12;" parent="r0z94dYXCMPsbsiVsmT_-293" vertex="1">
          <mxGeometry width="70" height="61" as="geometry">
            <mxRectangle width="70" height="61" as="alternateBounds" />
          </mxGeometry>
        </mxCell>
        <mxCell id="r0z94dYXCMPsbsiVsmT_-295" value="Name" style="shape=partialRectangle;html=1;whiteSpace=wrap;connectable=0;strokeColor=inherit;overflow=hidden;fillColor=none;top=0;left=0;bottom=0;right=0;pointerEvents=1;fontSize=12;" parent="r0z94dYXCMPsbsiVsmT_-293" vertex="1">
          <mxGeometry x="70" width="70" height="61" as="geometry">
            <mxRectangle width="70" height="61" as="alternateBounds" />
          </mxGeometry>
        </mxCell>
        <mxCell id="r0z94dYXCMPsbsiVsmT_-296" value="Not Null" style="shape=partialRectangle;html=1;whiteSpace=wrap;connectable=0;strokeColor=inherit;overflow=hidden;fillColor=none;top=0;left=0;bottom=0;right=0;pointerEvents=1;fontSize=12;" parent="r0z94dYXCMPsbsiVsmT_-293" vertex="1">
          <mxGeometry x="140" width="70" height="61" as="geometry">
            <mxRectangle width="70" height="61" as="alternateBounds" />
          </mxGeometry>
        </mxCell>
        <mxCell id="r0z94dYXCMPsbsiVsmT_-297" style="shape=tableRow;horizontal=0;startSize=0;swimlaneHead=0;swimlaneBody=0;strokeColor=inherit;top=0;left=0;bottom=0;right=0;collapsible=0;dropTarget=0;fillColor=none;points=[[0,0.5],[1,0.5]];portConstraint=eastwest;fontSize=16;" parent="r0z94dYXCMPsbsiVsmT_-284" vertex="1">
          <mxGeometry y="152" width="210" height="61" as="geometry" />
        </mxCell>
        <mxCell id="r0z94dYXCMPsbsiVsmT_-298" value="String" style="shape=partialRectangle;html=1;whiteSpace=wrap;connectable=0;strokeColor=inherit;overflow=hidden;fillColor=none;top=0;left=0;bottom=0;right=0;pointerEvents=1;fontSize=12;" parent="r0z94dYXCMPsbsiVsmT_-297" vertex="1">
          <mxGeometry width="70" height="61" as="geometry">
            <mxRectangle width="70" height="61" as="alternateBounds" />
          </mxGeometry>
        </mxCell>
        <mxCell id="r0z94dYXCMPsbsiVsmT_-299" value="Description" style="shape=partialRectangle;html=1;whiteSpace=wrap;connectable=0;strokeColor=inherit;overflow=hidden;fillColor=none;top=0;left=0;bottom=0;right=0;pointerEvents=1;fontSize=12;" parent="r0z94dYXCMPsbsiVsmT_-297" vertex="1">
          <mxGeometry x="70" width="70" height="61" as="geometry">
            <mxRectangle width="70" height="61" as="alternateBounds" />
          </mxGeometry>
        </mxCell>
        <mxCell id="r0z94dYXCMPsbsiVsmT_-300" value="Not Null" style="shape=partialRectangle;html=1;whiteSpace=wrap;connectable=0;strokeColor=inherit;overflow=hidden;fillColor=none;top=0;left=0;bottom=0;right=0;pointerEvents=1;fontSize=12;" parent="r0z94dYXCMPsbsiVsmT_-297" vertex="1">
          <mxGeometry x="140" width="70" height="61" as="geometry">
            <mxRectangle width="70" height="61" as="alternateBounds" />
          </mxGeometry>
        </mxCell>
        <mxCell id="r0z94dYXCMPsbsiVsmT_-301" style="shape=tableRow;horizontal=0;startSize=0;swimlaneHead=0;swimlaneBody=0;strokeColor=inherit;top=0;left=0;bottom=0;right=0;collapsible=0;dropTarget=0;fillColor=none;points=[[0,0.5],[1,0.5]];portConstraint=eastwest;fontSize=16;" parent="r0z94dYXCMPsbsiVsmT_-284" vertex="1">
          <mxGeometry y="213" width="210" height="61" as="geometry" />
        </mxCell>
        <mxCell id="r0z94dYXCMPsbsiVsmT_-302" value="JSON" style="shape=partialRectangle;html=1;whiteSpace=wrap;connectable=0;strokeColor=inherit;overflow=hidden;fillColor=none;top=0;left=0;bottom=0;right=0;pointerEvents=1;fontSize=12;" parent="r0z94dYXCMPsbsiVsmT_-301" vertex="1">
          <mxGeometry width="70" height="61" as="geometry">
            <mxRectangle width="70" height="61" as="alternateBounds" />
          </mxGeometry>
        </mxCell>
        <mxCell id="r0z94dYXCMPsbsiVsmT_-303" value="Details" style="shape=partialRectangle;html=1;whiteSpace=wrap;connectable=0;strokeColor=inherit;overflow=hidden;fillColor=none;top=0;left=0;bottom=0;right=0;pointerEvents=1;fontSize=12;" parent="r0z94dYXCMPsbsiVsmT_-301" vertex="1">
          <mxGeometry x="70" width="70" height="61" as="geometry">
            <mxRectangle width="70" height="61" as="alternateBounds" />
          </mxGeometry>
        </mxCell>
        <mxCell id="r0z94dYXCMPsbsiVsmT_-304" value="Not Null" style="shape=partialRectangle;html=1;whiteSpace=wrap;connectable=0;strokeColor=inherit;overflow=hidden;fillColor=none;top=0;left=0;bottom=0;right=0;pointerEvents=1;fontSize=12;" parent="r0z94dYXCMPsbsiVsmT_-301" vertex="1">
          <mxGeometry x="140" width="70" height="61" as="geometry">
            <mxRectangle width="70" height="61" as="alternateBounds" />
          </mxGeometry>
        </mxCell>
        <mxCell id="r0z94dYXCMPsbsiVsmT_-305" style="shape=tableRow;horizontal=0;startSize=0;swimlaneHead=0;swimlaneBody=0;strokeColor=inherit;top=0;left=0;bottom=0;right=0;collapsible=0;dropTarget=0;fillColor=none;points=[[0,0.5],[1,0.5]];portConstraint=eastwest;fontSize=16;" parent="r0z94dYXCMPsbsiVsmT_-284" vertex="1">
          <mxGeometry y="274" width="210" height="61" as="geometry" />
        </mxCell>
        <mxCell id="r0z94dYXCMPsbsiVsmT_-306" value="int" style="shape=partialRectangle;html=1;whiteSpace=wrap;connectable=0;strokeColor=inherit;overflow=hidden;fillColor=none;top=0;left=0;bottom=0;right=0;pointerEvents=1;fontSize=12;" parent="r0z94dYXCMPsbsiVsmT_-305" vertex="1">
          <mxGeometry width="70" height="61" as="geometry">
            <mxRectangle width="70" height="61" as="alternateBounds" />
          </mxGeometry>
        </mxCell>
        <mxCell id="r0z94dYXCMPsbsiVsmT_-307" value="avail_stock" style="shape=partialRectangle;html=1;whiteSpace=wrap;connectable=0;strokeColor=inherit;overflow=hidden;fillColor=none;top=0;left=0;bottom=0;right=0;pointerEvents=1;fontSize=12;" parent="r0z94dYXCMPsbsiVsmT_-305" vertex="1">
          <mxGeometry x="70" width="70" height="61" as="geometry">
            <mxRectangle width="70" height="61" as="alternateBounds" />
          </mxGeometry>
        </mxCell>
        <mxCell id="r0z94dYXCMPsbsiVsmT_-308" value="Not Null" style="shape=partialRectangle;html=1;whiteSpace=wrap;connectable=0;strokeColor=inherit;overflow=hidden;fillColor=none;top=0;left=0;bottom=0;right=0;pointerEvents=1;fontSize=12;" parent="r0z94dYXCMPsbsiVsmT_-305" vertex="1">
          <mxGeometry x="140" width="70" height="61" as="geometry">
            <mxRectangle width="70" height="61" as="alternateBounds" />
          </mxGeometry>
        </mxCell>
        <mxCell id="r0z94dYXCMPsbsiVsmT_-309" style="shape=tableRow;horizontal=0;startSize=0;swimlaneHead=0;swimlaneBody=0;strokeColor=inherit;top=0;left=0;bottom=0;right=0;collapsible=0;dropTarget=0;fillColor=none;points=[[0,0.5],[1,0.5]];portConstraint=eastwest;fontSize=16;" parent="r0z94dYXCMPsbsiVsmT_-284" vertex="1">
          <mxGeometry y="335" width="210" height="61" as="geometry" />
        </mxCell>
        <mxCell id="r0z94dYXCMPsbsiVsmT_-310" value="decimal" style="shape=partialRectangle;html=1;whiteSpace=wrap;connectable=0;strokeColor=inherit;overflow=hidden;fillColor=none;top=0;left=0;bottom=0;right=0;pointerEvents=1;fontSize=12;" parent="r0z94dYXCMPsbsiVsmT_-309" vertex="1">
          <mxGeometry width="70" height="61" as="geometry">
            <mxRectangle width="70" height="61" as="alternateBounds" />
          </mxGeometry>
        </mxCell>
        <mxCell id="r0z94dYXCMPsbsiVsmT_-311" value="price" style="shape=partialRectangle;html=1;whiteSpace=wrap;connectable=0;strokeColor=inherit;overflow=hidden;fillColor=none;top=0;left=0;bottom=0;right=0;pointerEvents=1;fontSize=12;" parent="r0z94dYXCMPsbsiVsmT_-309" vertex="1">
          <mxGeometry x="70" width="70" height="61" as="geometry">
            <mxRectangle width="70" height="61" as="alternateBounds" />
          </mxGeometry>
        </mxCell>
        <mxCell id="r0z94dYXCMPsbsiVsmT_-312" value="Not Null" style="shape=partialRectangle;html=1;whiteSpace=wrap;connectable=0;strokeColor=inherit;overflow=hidden;fillColor=none;top=0;left=0;bottom=0;right=0;pointerEvents=1;fontSize=12;" parent="r0z94dYXCMPsbsiVsmT_-309" vertex="1">
          <mxGeometry x="140" width="70" height="61" as="geometry">
            <mxRectangle width="70" height="61" as="alternateBounds" />
          </mxGeometry>
        </mxCell>
        <mxCell id="r0z94dYXCMPsbsiVsmT_-317" style="shape=tableRow;horizontal=0;startSize=0;swimlaneHead=0;swimlaneBody=0;strokeColor=inherit;top=0;left=0;bottom=0;right=0;collapsible=0;dropTarget=0;fillColor=none;points=[[0,0.5],[1,0.5]];portConstraint=eastwest;fontSize=16;" parent="r0z94dYXCMPsbsiVsmT_-284" vertex="1">
          <mxGeometry y="396" width="210" height="61" as="geometry" />
        </mxCell>
        <mxCell id="r0z94dYXCMPsbsiVsmT_-318" value="timestamp" style="shape=partialRectangle;html=1;whiteSpace=wrap;connectable=0;strokeColor=inherit;overflow=hidden;fillColor=none;top=0;left=0;bottom=0;right=0;pointerEvents=1;fontSize=12;" parent="r0z94dYXCMPsbsiVsmT_-317" vertex="1">
          <mxGeometry width="70" height="61" as="geometry">
            <mxRectangle width="70" height="61" as="alternateBounds" />
          </mxGeometry>
        </mxCell>
        <mxCell id="r0z94dYXCMPsbsiVsmT_-319" value="created_at" style="shape=partialRectangle;html=1;whiteSpace=wrap;connectable=0;strokeColor=inherit;overflow=hidden;fillColor=none;top=0;left=0;bottom=0;right=0;pointerEvents=1;fontSize=12;" parent="r0z94dYXCMPsbsiVsmT_-317" vertex="1">
          <mxGeometry x="70" width="70" height="61" as="geometry">
            <mxRectangle width="70" height="61" as="alternateBounds" />
          </mxGeometry>
        </mxCell>
        <mxCell id="r0z94dYXCMPsbsiVsmT_-320" value="Not Null" style="shape=partialRectangle;html=1;whiteSpace=wrap;connectable=0;strokeColor=inherit;overflow=hidden;fillColor=none;top=0;left=0;bottom=0;right=0;pointerEvents=1;fontSize=12;" parent="r0z94dYXCMPsbsiVsmT_-317" vertex="1">
          <mxGeometry x="140" width="70" height="61" as="geometry">
            <mxRectangle width="70" height="61" as="alternateBounds" />
          </mxGeometry>
        </mxCell>
        <mxCell id="r0z94dYXCMPsbsiVsmT_-313" style="shape=tableRow;horizontal=0;startSize=0;swimlaneHead=0;swimlaneBody=0;strokeColor=inherit;top=0;left=0;bottom=0;right=0;collapsible=0;dropTarget=0;fillColor=none;points=[[0,0.5],[1,0.5]];portConstraint=eastwest;fontSize=16;" parent="r0z94dYXCMPsbsiVsmT_-284" vertex="1">
          <mxGeometry y="457" width="210" height="61" as="geometry" />
        </mxCell>
        <mxCell id="r0z94dYXCMPsbsiVsmT_-314" value="timestamp" style="shape=partialRectangle;html=1;whiteSpace=wrap;connectable=0;strokeColor=inherit;overflow=hidden;fillColor=none;top=0;left=0;bottom=0;right=0;pointerEvents=1;fontSize=12;" parent="r0z94dYXCMPsbsiVsmT_-313" vertex="1">
          <mxGeometry width="70" height="61" as="geometry">
            <mxRectangle width="70" height="61" as="alternateBounds" />
          </mxGeometry>
        </mxCell>
        <mxCell id="r0z94dYXCMPsbsiVsmT_-315" value="updated_at" style="shape=partialRectangle;html=1;whiteSpace=wrap;connectable=0;strokeColor=inherit;overflow=hidden;fillColor=none;top=0;left=0;bottom=0;right=0;pointerEvents=1;fontSize=12;" parent="r0z94dYXCMPsbsiVsmT_-313" vertex="1">
          <mxGeometry x="70" width="70" height="61" as="geometry">
            <mxRectangle width="70" height="61" as="alternateBounds" />
          </mxGeometry>
        </mxCell>
        <mxCell id="r0z94dYXCMPsbsiVsmT_-316" value="Not Null" style="shape=partialRectangle;html=1;whiteSpace=wrap;connectable=0;strokeColor=inherit;overflow=hidden;fillColor=none;top=0;left=0;bottom=0;right=0;pointerEvents=1;fontSize=12;" parent="r0z94dYXCMPsbsiVsmT_-313" vertex="1">
          <mxGeometry x="140" width="70" height="61" as="geometry">
            <mxRectangle width="70" height="61" as="alternateBounds" />
          </mxGeometry>
        </mxCell>
        <mxCell id="r0z94dYXCMPsbsiVsmT_-321" style="shape=tableRow;horizontal=0;startSize=0;swimlaneHead=0;swimlaneBody=0;strokeColor=inherit;top=0;left=0;bottom=0;right=0;collapsible=0;dropTarget=0;fillColor=none;points=[[0,0.5],[1,0.5]];portConstraint=eastwest;fontSize=16;" parent="r0z94dYXCMPsbsiVsmT_-284" vertex="1">
          <mxGeometry y="518" width="210" height="61" as="geometry" />
        </mxCell>
        <mxCell id="r0z94dYXCMPsbsiVsmT_-322" value="bool" style="shape=partialRectangle;html=1;whiteSpace=wrap;connectable=0;strokeColor=inherit;overflow=hidden;fillColor=none;top=0;left=0;bottom=0;right=0;pointerEvents=1;fontSize=12;" parent="r0z94dYXCMPsbsiVsmT_-321" vertex="1">
          <mxGeometry width="70" height="61" as="geometry">
            <mxRectangle width="70" height="61" as="alternateBounds" />
          </mxGeometry>
        </mxCell>
        <mxCell id="r0z94dYXCMPsbsiVsmT_-323" value="is_active" style="shape=partialRectangle;html=1;whiteSpace=wrap;connectable=0;strokeColor=inherit;overflow=hidden;fillColor=none;top=0;left=0;bottom=0;right=0;pointerEvents=1;fontSize=12;" parent="r0z94dYXCMPsbsiVsmT_-321" vertex="1">
          <mxGeometry x="70" width="70" height="61" as="geometry">
            <mxRectangle width="70" height="61" as="alternateBounds" />
          </mxGeometry>
        </mxCell>
        <mxCell id="r0z94dYXCMPsbsiVsmT_-324" value="default&lt;br&gt;true" style="shape=partialRectangle;html=1;whiteSpace=wrap;connectable=0;strokeColor=inherit;overflow=hidden;fillColor=none;top=0;left=0;bottom=0;right=0;pointerEvents=1;fontSize=12;" parent="r0z94dYXCMPsbsiVsmT_-321" vertex="1">
          <mxGeometry x="140" width="70" height="61" as="geometry">
            <mxRectangle width="70" height="61" as="alternateBounds" />
          </mxGeometry>
        </mxCell>
        <mxCell id="r0z94dYXCMPsbsiVsmT_-325" value="cart_item" style="shape=table;startSize=30;container=1;collapsible=0;childLayout=tableLayout;strokeColor=default;fontSize=16;" parent="1" vertex="1">
          <mxGeometry x="299.5" y="630" width="220" height="320" as="geometry" />
        </mxCell>
        <mxCell id="r0z94dYXCMPsbsiVsmT_-326" value="" style="shape=tableRow;horizontal=0;startSize=0;swimlaneHead=0;swimlaneBody=0;strokeColor=inherit;top=0;left=0;bottom=0;right=0;collapsible=0;dropTarget=0;fillColor=none;points=[[0,0.5],[1,0.5]];portConstraint=eastwest;fontSize=16;" parent="r0z94dYXCMPsbsiVsmT_-325" vertex="1">
          <mxGeometry y="30" width="220" height="40" as="geometry" />
        </mxCell>
        <mxCell id="r0z94dYXCMPsbsiVsmT_-327" value="big int" style="shape=partialRectangle;html=1;whiteSpace=wrap;connectable=0;strokeColor=inherit;overflow=hidden;fillColor=none;top=0;left=0;bottom=0;right=0;pointerEvents=1;fontSize=12;" parent="r0z94dYXCMPsbsiVsmT_-326" vertex="1">
          <mxGeometry width="69" height="40" as="geometry">
            <mxRectangle width="69" height="40" as="alternateBounds" />
          </mxGeometry>
        </mxCell>
        <mxCell id="r0z94dYXCMPsbsiVsmT_-328" value="cart_item_id" style="shape=partialRectangle;html=1;whiteSpace=wrap;connectable=0;strokeColor=inherit;overflow=hidden;fillColor=none;top=0;left=0;bottom=0;right=0;pointerEvents=1;fontSize=12;" parent="r0z94dYXCMPsbsiVsmT_-326" vertex="1">
          <mxGeometry x="69" width="82" height="40" as="geometry">
            <mxRectangle width="82" height="40" as="alternateBounds" />
          </mxGeometry>
        </mxCell>
        <mxCell id="r0z94dYXCMPsbsiVsmT_-329" value="PK" style="shape=partialRectangle;html=1;whiteSpace=wrap;connectable=0;strokeColor=inherit;overflow=hidden;fillColor=none;top=0;left=0;bottom=0;right=0;pointerEvents=1;fontSize=12;" parent="r0z94dYXCMPsbsiVsmT_-326" vertex="1">
          <mxGeometry x="151" width="69" height="40" as="geometry">
            <mxRectangle width="69" height="40" as="alternateBounds" />
          </mxGeometry>
        </mxCell>
        <mxCell id="r0z94dYXCMPsbsiVsmT_-330" value="" style="shape=tableRow;horizontal=0;startSize=0;swimlaneHead=0;swimlaneBody=0;strokeColor=inherit;top=0;left=0;bottom=0;right=0;collapsible=0;dropTarget=0;fillColor=none;points=[[0,0.5],[1,0.5]];portConstraint=eastwest;fontSize=16;" parent="r0z94dYXCMPsbsiVsmT_-325" vertex="1">
          <mxGeometry y="70" width="220" height="50" as="geometry" />
        </mxCell>
        <mxCell id="r0z94dYXCMPsbsiVsmT_-331" value="UUID" style="shape=partialRectangle;html=1;whiteSpace=wrap;connectable=0;strokeColor=inherit;overflow=hidden;fillColor=none;top=0;left=0;bottom=0;right=0;pointerEvents=1;fontSize=12;" parent="r0z94dYXCMPsbsiVsmT_-330" vertex="1">
          <mxGeometry width="69" height="50" as="geometry">
            <mxRectangle width="69" height="50" as="alternateBounds" />
          </mxGeometry>
        </mxCell>
        <mxCell id="r0z94dYXCMPsbsiVsmT_-332" value="cart_id" style="shape=partialRectangle;html=1;whiteSpace=wrap;connectable=0;strokeColor=inherit;overflow=hidden;fillColor=none;top=0;left=0;bottom=0;right=0;pointerEvents=1;fontSize=12;" parent="r0z94dYXCMPsbsiVsmT_-330" vertex="1">
          <mxGeometry x="69" width="82" height="50" as="geometry">
            <mxRectangle width="82" height="50" as="alternateBounds" />
          </mxGeometry>
        </mxCell>
        <mxCell id="r0z94dYXCMPsbsiVsmT_-333" value="FK" style="shape=partialRectangle;html=1;whiteSpace=wrap;connectable=0;strokeColor=inherit;overflow=hidden;fillColor=none;top=0;left=0;bottom=0;right=0;pointerEvents=1;fontSize=12;" parent="r0z94dYXCMPsbsiVsmT_-330" vertex="1">
          <mxGeometry x="151" width="69" height="50" as="geometry">
            <mxRectangle width="69" height="50" as="alternateBounds" />
          </mxGeometry>
        </mxCell>
        <mxCell id="r0z94dYXCMPsbsiVsmT_-334" value="" style="shape=tableRow;horizontal=0;startSize=0;swimlaneHead=0;swimlaneBody=0;strokeColor=inherit;top=0;left=0;bottom=0;right=0;collapsible=0;dropTarget=0;fillColor=none;points=[[0,0.5],[1,0.5]];portConstraint=eastwest;fontSize=16;" parent="r0z94dYXCMPsbsiVsmT_-325" vertex="1">
          <mxGeometry y="120" width="220" height="40" as="geometry" />
        </mxCell>
        <mxCell id="r0z94dYXCMPsbsiVsmT_-335" value="big int" style="shape=partialRectangle;html=1;whiteSpace=wrap;connectable=0;strokeColor=inherit;overflow=hidden;fillColor=none;top=0;left=0;bottom=0;right=0;pointerEvents=1;fontSize=12;" parent="r0z94dYXCMPsbsiVsmT_-334" vertex="1">
          <mxGeometry width="69" height="40" as="geometry">
            <mxRectangle width="69" height="40" as="alternateBounds" />
          </mxGeometry>
        </mxCell>
        <mxCell id="r0z94dYXCMPsbsiVsmT_-336" value="product_id" style="shape=partialRectangle;html=1;whiteSpace=wrap;connectable=0;strokeColor=inherit;overflow=hidden;fillColor=none;top=0;left=0;bottom=0;right=0;pointerEvents=1;fontSize=12;" parent="r0z94dYXCMPsbsiVsmT_-334" vertex="1">
          <mxGeometry x="69" width="82" height="40" as="geometry">
            <mxRectangle width="82" height="40" as="alternateBounds" />
          </mxGeometry>
        </mxCell>
        <mxCell id="r0z94dYXCMPsbsiVsmT_-337" value="FK" style="shape=partialRectangle;html=1;whiteSpace=wrap;connectable=0;strokeColor=inherit;overflow=hidden;fillColor=none;top=0;left=0;bottom=0;right=0;pointerEvents=1;fontSize=12;" parent="r0z94dYXCMPsbsiVsmT_-334" vertex="1">
          <mxGeometry x="151" width="69" height="40" as="geometry">
            <mxRectangle width="69" height="40" as="alternateBounds" />
          </mxGeometry>
        </mxCell>
        <mxCell id="WpTCvEs3GVWrxPU21Iq2-105" style="shape=tableRow;horizontal=0;startSize=0;swimlaneHead=0;swimlaneBody=0;strokeColor=inherit;top=0;left=0;bottom=0;right=0;collapsible=0;dropTarget=0;fillColor=none;points=[[0,0.5],[1,0.5]];portConstraint=eastwest;fontSize=16;" vertex="1" parent="r0z94dYXCMPsbsiVsmT_-325">
          <mxGeometry y="160" width="220" height="40" as="geometry" />
        </mxCell>
        <mxCell id="WpTCvEs3GVWrxPU21Iq2-106" value="String" style="shape=partialRectangle;html=1;whiteSpace=wrap;connectable=0;strokeColor=inherit;overflow=hidden;fillColor=none;top=0;left=0;bottom=0;right=0;pointerEvents=1;fontSize=12;" vertex="1" parent="WpTCvEs3GVWrxPU21Iq2-105">
          <mxGeometry width="69" height="40" as="geometry">
            <mxRectangle width="69" height="40" as="alternateBounds" />
          </mxGeometry>
        </mxCell>
        <mxCell id="WpTCvEs3GVWrxPU21Iq2-107" value="product_name" style="shape=partialRectangle;html=1;whiteSpace=wrap;connectable=0;strokeColor=inherit;overflow=hidden;fillColor=none;top=0;left=0;bottom=0;right=0;pointerEvents=1;fontSize=12;" vertex="1" parent="WpTCvEs3GVWrxPU21Iq2-105">
          <mxGeometry x="69" width="82" height="40" as="geometry">
            <mxRectangle width="82" height="40" as="alternateBounds" />
          </mxGeometry>
        </mxCell>
        <mxCell id="WpTCvEs3GVWrxPU21Iq2-108" value="FK" style="shape=partialRectangle;html=1;whiteSpace=wrap;connectable=0;strokeColor=inherit;overflow=hidden;fillColor=none;top=0;left=0;bottom=0;right=0;pointerEvents=1;fontSize=12;" vertex="1" parent="WpTCvEs3GVWrxPU21Iq2-105">
          <mxGeometry x="151" width="69" height="40" as="geometry">
            <mxRectangle width="69" height="40" as="alternateBounds" />
          </mxGeometry>
        </mxCell>
        <mxCell id="r0z94dYXCMPsbsiVsmT_-338" style="shape=tableRow;horizontal=0;startSize=0;swimlaneHead=0;swimlaneBody=0;strokeColor=inherit;top=0;left=0;bottom=0;right=0;collapsible=0;dropTarget=0;fillColor=none;points=[[0,0.5],[1,0.5]];portConstraint=eastwest;fontSize=16;" parent="r0z94dYXCMPsbsiVsmT_-325" vertex="1">
          <mxGeometry y="200" width="220" height="40" as="geometry" />
        </mxCell>
        <mxCell id="r0z94dYXCMPsbsiVsmT_-339" value="int" style="shape=partialRectangle;html=1;whiteSpace=wrap;connectable=0;strokeColor=inherit;overflow=hidden;fillColor=none;top=0;left=0;bottom=0;right=0;pointerEvents=1;fontSize=12;" parent="r0z94dYXCMPsbsiVsmT_-338" vertex="1">
          <mxGeometry width="69" height="40" as="geometry">
            <mxRectangle width="69" height="40" as="alternateBounds" />
          </mxGeometry>
        </mxCell>
        <mxCell id="r0z94dYXCMPsbsiVsmT_-340" value="quantity" style="shape=partialRectangle;html=1;whiteSpace=wrap;connectable=0;strokeColor=inherit;overflow=hidden;fillColor=none;top=0;left=0;bottom=0;right=0;pointerEvents=1;fontSize=12;" parent="r0z94dYXCMPsbsiVsmT_-338" vertex="1">
          <mxGeometry x="69" width="82" height="40" as="geometry">
            <mxRectangle width="82" height="40" as="alternateBounds" />
          </mxGeometry>
        </mxCell>
        <mxCell id="r0z94dYXCMPsbsiVsmT_-341" value="default&lt;br&gt;1" style="shape=partialRectangle;html=1;whiteSpace=wrap;connectable=0;strokeColor=inherit;overflow=hidden;fillColor=none;top=0;left=0;bottom=0;right=0;pointerEvents=1;fontSize=12;" parent="r0z94dYXCMPsbsiVsmT_-338" vertex="1">
          <mxGeometry x="151" width="69" height="40" as="geometry">
            <mxRectangle width="69" height="40" as="alternateBounds" />
          </mxGeometry>
        </mxCell>
        <mxCell id="r0z94dYXCMPsbsiVsmT_-342" style="shape=tableRow;horizontal=0;startSize=0;swimlaneHead=0;swimlaneBody=0;strokeColor=inherit;top=0;left=0;bottom=0;right=0;collapsible=0;dropTarget=0;fillColor=none;points=[[0,0.5],[1,0.5]];portConstraint=eastwest;fontSize=16;" parent="r0z94dYXCMPsbsiVsmT_-325" vertex="1">
          <mxGeometry y="240" width="220" height="40" as="geometry" />
        </mxCell>
        <mxCell id="r0z94dYXCMPsbsiVsmT_-343" value="decimal" style="shape=partialRectangle;html=1;whiteSpace=wrap;connectable=0;strokeColor=inherit;overflow=hidden;fillColor=none;top=0;left=0;bottom=0;right=0;pointerEvents=1;fontSize=12;" parent="r0z94dYXCMPsbsiVsmT_-342" vertex="1">
          <mxGeometry width="69" height="40" as="geometry">
            <mxRectangle width="69" height="40" as="alternateBounds" />
          </mxGeometry>
        </mxCell>
        <mxCell id="r0z94dYXCMPsbsiVsmT_-344" value="price_at" style="shape=partialRectangle;html=1;whiteSpace=wrap;connectable=0;strokeColor=inherit;overflow=hidden;fillColor=none;top=0;left=0;bottom=0;right=0;pointerEvents=1;fontSize=12;" parent="r0z94dYXCMPsbsiVsmT_-342" vertex="1">
          <mxGeometry x="69" width="82" height="40" as="geometry">
            <mxRectangle width="82" height="40" as="alternateBounds" />
          </mxGeometry>
        </mxCell>
        <mxCell id="r0z94dYXCMPsbsiVsmT_-345" value="snapshot" style="shape=partialRectangle;html=1;whiteSpace=wrap;connectable=0;strokeColor=inherit;overflow=hidden;fillColor=none;top=0;left=0;bottom=0;right=0;pointerEvents=1;fontSize=12;" parent="r0z94dYXCMPsbsiVsmT_-342" vertex="1">
          <mxGeometry x="151" width="69" height="40" as="geometry">
            <mxRectangle width="69" height="40" as="alternateBounds" />
          </mxGeometry>
        </mxCell>
        <mxCell id="r0z94dYXCMPsbsiVsmT_-346" style="shape=tableRow;horizontal=0;startSize=0;swimlaneHead=0;swimlaneBody=0;strokeColor=inherit;top=0;left=0;bottom=0;right=0;collapsible=0;dropTarget=0;fillColor=none;points=[[0,0.5],[1,0.5]];portConstraint=eastwest;fontSize=16;" parent="r0z94dYXCMPsbsiVsmT_-325" vertex="1">
          <mxGeometry y="280" width="220" height="40" as="geometry" />
        </mxCell>
        <mxCell id="r0z94dYXCMPsbsiVsmT_-347" value="timestamp" style="shape=partialRectangle;html=1;whiteSpace=wrap;connectable=0;strokeColor=inherit;overflow=hidden;fillColor=none;top=0;left=0;bottom=0;right=0;pointerEvents=1;fontSize=12;" parent="r0z94dYXCMPsbsiVsmT_-346" vertex="1">
          <mxGeometry width="69" height="40" as="geometry">
            <mxRectangle width="69" height="40" as="alternateBounds" />
          </mxGeometry>
        </mxCell>
        <mxCell id="r0z94dYXCMPsbsiVsmT_-348" value="added_at" style="shape=partialRectangle;html=1;whiteSpace=wrap;connectable=0;strokeColor=inherit;overflow=hidden;fillColor=none;top=0;left=0;bottom=0;right=0;pointerEvents=1;fontSize=12;" parent="r0z94dYXCMPsbsiVsmT_-346" vertex="1">
          <mxGeometry x="69" width="82" height="40" as="geometry">
            <mxRectangle width="82" height="40" as="alternateBounds" />
          </mxGeometry>
        </mxCell>
        <mxCell id="r0z94dYXCMPsbsiVsmT_-349" value="default now()" style="shape=partialRectangle;html=1;whiteSpace=wrap;connectable=0;strokeColor=inherit;overflow=hidden;fillColor=none;top=0;left=0;bottom=0;right=0;pointerEvents=1;fontSize=12;" parent="r0z94dYXCMPsbsiVsmT_-346" vertex="1">
          <mxGeometry x="151" width="69" height="40" as="geometry">
            <mxRectangle width="69" height="40" as="alternateBounds" />
          </mxGeometry>
        </mxCell>
        <mxCell id="r0z94dYXCMPsbsiVsmT_-350" value="" style="edgeStyle=entityRelationEdgeStyle;fontSize=12;html=1;endArrow=ERoneToMany;rounded=0;" parent="1" source="r0z94dYXCMPsbsiVsmT_-225" target="r0z94dYXCMPsbsiVsmT_-334" edge="1">
          <mxGeometry width="100" height="100" relative="1" as="geometry">
            <mxPoint x="210" y="900" as="sourcePoint" />
            <mxPoint x="310" y="800" as="targetPoint" />
          </mxGeometry>
        </mxCell>
        <mxCell id="r0z94dYXCMPsbsiVsmT_-351" value="" style="edgeStyle=entityRelationEdgeStyle;fontSize=12;html=1;endArrow=ERzeroToMany;endFill=1;startArrow=ERzeroToMany;rounded=0;exitX=1;exitY=0.5;exitDx=0;exitDy=0;" parent="1" source="r0z94dYXCMPsbsiVsmT_-334" target="r0z94dYXCMPsbsiVsmT_-297" edge="1">
          <mxGeometry width="100" height="100" relative="1" as="geometry">
            <mxPoint x="360" y="910" as="sourcePoint" />
            <mxPoint x="460" y="810" as="targetPoint" />
          </mxGeometry>
        </mxCell>
        <mxCell id="r0z94dYXCMPsbsiVsmT_-352" value="product_category" style="shape=table;startSize=30;container=1;collapsible=0;childLayout=tableLayout;strokeColor=default;fontSize=16;" parent="1" vertex="1">
          <mxGeometry x="870" y="585" width="180" height="150" as="geometry" />
        </mxCell>
        <mxCell id="r0z94dYXCMPsbsiVsmT_-353" value="" style="shape=tableRow;horizontal=0;startSize=0;swimlaneHead=0;swimlaneBody=0;strokeColor=inherit;top=0;left=0;bottom=0;right=0;collapsible=0;dropTarget=0;fillColor=none;points=[[0,0.5],[1,0.5]];portConstraint=eastwest;fontSize=16;" parent="r0z94dYXCMPsbsiVsmT_-352" vertex="1">
          <mxGeometry y="30" width="180" height="40" as="geometry" />
        </mxCell>
        <mxCell id="r0z94dYXCMPsbsiVsmT_-354" value="big int" style="shape=partialRectangle;html=1;whiteSpace=wrap;connectable=0;strokeColor=inherit;overflow=hidden;fillColor=none;top=0;left=0;bottom=0;right=0;pointerEvents=1;fontSize=12;" parent="r0z94dYXCMPsbsiVsmT_-353" vertex="1">
          <mxGeometry width="60" height="40" as="geometry">
            <mxRectangle width="60" height="40" as="alternateBounds" />
          </mxGeometry>
        </mxCell>
        <mxCell id="r0z94dYXCMPsbsiVsmT_-355" value="id" style="shape=partialRectangle;html=1;whiteSpace=wrap;connectable=0;strokeColor=inherit;overflow=hidden;fillColor=none;top=0;left=0;bottom=0;right=0;pointerEvents=1;fontSize=12;" parent="r0z94dYXCMPsbsiVsmT_-353" vertex="1">
          <mxGeometry x="60" width="60" height="40" as="geometry">
            <mxRectangle width="60" height="40" as="alternateBounds" />
          </mxGeometry>
        </mxCell>
        <mxCell id="r0z94dYXCMPsbsiVsmT_-356" value="PK" style="shape=partialRectangle;html=1;whiteSpace=wrap;connectable=0;strokeColor=inherit;overflow=hidden;fillColor=none;top=0;left=0;bottom=0;right=0;pointerEvents=1;fontSize=12;" parent="r0z94dYXCMPsbsiVsmT_-353" vertex="1">
          <mxGeometry x="120" width="60" height="40" as="geometry">
            <mxRectangle width="60" height="40" as="alternateBounds" />
          </mxGeometry>
        </mxCell>
        <mxCell id="r0z94dYXCMPsbsiVsmT_-357" value="" style="shape=tableRow;horizontal=0;startSize=0;swimlaneHead=0;swimlaneBody=0;strokeColor=inherit;top=0;left=0;bottom=0;right=0;collapsible=0;dropTarget=0;fillColor=none;points=[[0,0.5],[1,0.5]];portConstraint=eastwest;fontSize=16;" parent="r0z94dYXCMPsbsiVsmT_-352" vertex="1">
          <mxGeometry y="70" width="180" height="40" as="geometry" />
        </mxCell>
        <mxCell id="r0z94dYXCMPsbsiVsmT_-358" value="big int" style="shape=partialRectangle;html=1;whiteSpace=wrap;connectable=0;strokeColor=inherit;overflow=hidden;fillColor=none;top=0;left=0;bottom=0;right=0;pointerEvents=1;fontSize=12;" parent="r0z94dYXCMPsbsiVsmT_-357" vertex="1">
          <mxGeometry width="60" height="40" as="geometry">
            <mxRectangle width="60" height="40" as="alternateBounds" />
          </mxGeometry>
        </mxCell>
        <mxCell id="r0z94dYXCMPsbsiVsmT_-359" value="product_id" style="shape=partialRectangle;html=1;whiteSpace=wrap;connectable=0;strokeColor=inherit;overflow=hidden;fillColor=none;top=0;left=0;bottom=0;right=0;pointerEvents=1;fontSize=12;" parent="r0z94dYXCMPsbsiVsmT_-357" vertex="1">
          <mxGeometry x="60" width="60" height="40" as="geometry">
            <mxRectangle width="60" height="40" as="alternateBounds" />
          </mxGeometry>
        </mxCell>
        <mxCell id="r0z94dYXCMPsbsiVsmT_-360" value="FK" style="shape=partialRectangle;html=1;whiteSpace=wrap;connectable=0;strokeColor=inherit;overflow=hidden;fillColor=none;top=0;left=0;bottom=0;right=0;pointerEvents=1;fontSize=12;" parent="r0z94dYXCMPsbsiVsmT_-357" vertex="1">
          <mxGeometry x="120" width="60" height="40" as="geometry">
            <mxRectangle width="60" height="40" as="alternateBounds" />
          </mxGeometry>
        </mxCell>
        <mxCell id="r0z94dYXCMPsbsiVsmT_-361" value="" style="shape=tableRow;horizontal=0;startSize=0;swimlaneHead=0;swimlaneBody=0;strokeColor=inherit;top=0;left=0;bottom=0;right=0;collapsible=0;dropTarget=0;fillColor=none;points=[[0,0.5],[1,0.5]];portConstraint=eastwest;fontSize=16;" parent="r0z94dYXCMPsbsiVsmT_-352" vertex="1">
          <mxGeometry y="110" width="180" height="40" as="geometry" />
        </mxCell>
        <mxCell id="r0z94dYXCMPsbsiVsmT_-362" value="big int" style="shape=partialRectangle;html=1;whiteSpace=wrap;connectable=0;strokeColor=inherit;overflow=hidden;fillColor=none;top=0;left=0;bottom=0;right=0;pointerEvents=1;fontSize=12;" parent="r0z94dYXCMPsbsiVsmT_-361" vertex="1">
          <mxGeometry width="60" height="40" as="geometry">
            <mxRectangle width="60" height="40" as="alternateBounds" />
          </mxGeometry>
        </mxCell>
        <mxCell id="r0z94dYXCMPsbsiVsmT_-363" value="category_id" style="shape=partialRectangle;html=1;whiteSpace=wrap;connectable=0;strokeColor=inherit;overflow=hidden;fillColor=none;top=0;left=0;bottom=0;right=0;pointerEvents=1;fontSize=12;" parent="r0z94dYXCMPsbsiVsmT_-361" vertex="1">
          <mxGeometry x="60" width="60" height="40" as="geometry">
            <mxRectangle width="60" height="40" as="alternateBounds" />
          </mxGeometry>
        </mxCell>
        <mxCell id="r0z94dYXCMPsbsiVsmT_-364" value="FK" style="shape=partialRectangle;html=1;whiteSpace=wrap;connectable=0;strokeColor=inherit;overflow=hidden;fillColor=none;top=0;left=0;bottom=0;right=0;pointerEvents=1;fontSize=12;" parent="r0z94dYXCMPsbsiVsmT_-361" vertex="1">
          <mxGeometry x="120" width="60" height="40" as="geometry">
            <mxRectangle width="60" height="40" as="alternateBounds" />
          </mxGeometry>
        </mxCell>
        <mxCell id="r0z94dYXCMPsbsiVsmT_-365" value="" style="edgeStyle=entityRelationEdgeStyle;fontSize=12;html=1;endArrow=ERzeroToMany;startArrow=ERmandOne;rounded=0;" parent="1" source="r0z94dYXCMPsbsiVsmT_-297" target="r0z94dYXCMPsbsiVsmT_-357" edge="1">
          <mxGeometry width="100" height="100" relative="1" as="geometry">
            <mxPoint x="800" y="740" as="sourcePoint" />
            <mxPoint x="900" y="640" as="targetPoint" />
          </mxGeometry>
        </mxCell>
        <mxCell id="r0z94dYXCMPsbsiVsmT_-366" value="category" style="shape=table;startSize=30;container=1;collapsible=0;childLayout=tableLayout;strokeColor=default;fontSize=16;" parent="1" vertex="1">
          <mxGeometry x="870" y="300" width="180" height="150" as="geometry" />
        </mxCell>
        <mxCell id="r0z94dYXCMPsbsiVsmT_-367" value="" style="shape=tableRow;horizontal=0;startSize=0;swimlaneHead=0;swimlaneBody=0;strokeColor=inherit;top=0;left=0;bottom=0;right=0;collapsible=0;dropTarget=0;fillColor=none;points=[[0,0.5],[1,0.5]];portConstraint=eastwest;fontSize=16;" parent="r0z94dYXCMPsbsiVsmT_-366" vertex="1">
          <mxGeometry y="30" width="180" height="40" as="geometry" />
        </mxCell>
        <mxCell id="r0z94dYXCMPsbsiVsmT_-368" value="big int" style="shape=partialRectangle;html=1;whiteSpace=wrap;connectable=0;strokeColor=inherit;overflow=hidden;fillColor=none;top=0;left=0;bottom=0;right=0;pointerEvents=1;fontSize=11;" parent="r0z94dYXCMPsbsiVsmT_-367" vertex="1">
          <mxGeometry width="60" height="40" as="geometry">
            <mxRectangle width="60" height="40" as="alternateBounds" />
          </mxGeometry>
        </mxCell>
        <mxCell id="r0z94dYXCMPsbsiVsmT_-369" value="id" style="shape=partialRectangle;html=1;whiteSpace=wrap;connectable=0;strokeColor=inherit;overflow=hidden;fillColor=none;top=0;left=0;bottom=0;right=0;pointerEvents=1;fontSize=11;" parent="r0z94dYXCMPsbsiVsmT_-367" vertex="1">
          <mxGeometry x="60" width="60" height="40" as="geometry">
            <mxRectangle width="60" height="40" as="alternateBounds" />
          </mxGeometry>
        </mxCell>
        <mxCell id="r0z94dYXCMPsbsiVsmT_-370" value="PK" style="shape=partialRectangle;html=1;whiteSpace=wrap;connectable=0;strokeColor=inherit;overflow=hidden;fillColor=none;top=0;left=0;bottom=0;right=0;pointerEvents=1;fontSize=11;" parent="r0z94dYXCMPsbsiVsmT_-367" vertex="1">
          <mxGeometry x="120" width="60" height="40" as="geometry">
            <mxRectangle width="60" height="40" as="alternateBounds" />
          </mxGeometry>
        </mxCell>
        <mxCell id="r0z94dYXCMPsbsiVsmT_-371" value="" style="shape=tableRow;horizontal=0;startSize=0;swimlaneHead=0;swimlaneBody=0;strokeColor=inherit;top=0;left=0;bottom=0;right=0;collapsible=0;dropTarget=0;fillColor=none;points=[[0,0.5],[1,0.5]];portConstraint=eastwest;fontSize=16;" parent="r0z94dYXCMPsbsiVsmT_-366" vertex="1">
          <mxGeometry y="70" width="180" height="40" as="geometry" />
        </mxCell>
        <mxCell id="r0z94dYXCMPsbsiVsmT_-372" value="String" style="shape=partialRectangle;html=1;whiteSpace=wrap;connectable=0;strokeColor=inherit;overflow=hidden;fillColor=none;top=0;left=0;bottom=0;right=0;pointerEvents=1;fontSize=11;" parent="r0z94dYXCMPsbsiVsmT_-371" vertex="1">
          <mxGeometry width="60" height="40" as="geometry">
            <mxRectangle width="60" height="40" as="alternateBounds" />
          </mxGeometry>
        </mxCell>
        <mxCell id="r0z94dYXCMPsbsiVsmT_-373" value="name" style="shape=partialRectangle;html=1;whiteSpace=wrap;connectable=0;strokeColor=inherit;overflow=hidden;fillColor=none;top=0;left=0;bottom=0;right=0;pointerEvents=1;fontSize=11;" parent="r0z94dYXCMPsbsiVsmT_-371" vertex="1">
          <mxGeometry x="60" width="60" height="40" as="geometry">
            <mxRectangle width="60" height="40" as="alternateBounds" />
          </mxGeometry>
        </mxCell>
        <mxCell id="r0z94dYXCMPsbsiVsmT_-374" value="Not Null" style="shape=partialRectangle;html=1;whiteSpace=wrap;connectable=0;strokeColor=inherit;overflow=hidden;fillColor=none;top=0;left=0;bottom=0;right=0;pointerEvents=1;fontSize=11;" parent="r0z94dYXCMPsbsiVsmT_-371" vertex="1">
          <mxGeometry x="120" width="60" height="40" as="geometry">
            <mxRectangle width="60" height="40" as="alternateBounds" />
          </mxGeometry>
        </mxCell>
        <mxCell id="r0z94dYXCMPsbsiVsmT_-375" value="" style="shape=tableRow;horizontal=0;startSize=0;swimlaneHead=0;swimlaneBody=0;strokeColor=inherit;top=0;left=0;bottom=0;right=0;collapsible=0;dropTarget=0;fillColor=none;points=[[0,0.5],[1,0.5]];portConstraint=eastwest;fontSize=16;" parent="r0z94dYXCMPsbsiVsmT_-366" vertex="1">
          <mxGeometry y="110" width="180" height="40" as="geometry" />
        </mxCell>
        <mxCell id="r0z94dYXCMPsbsiVsmT_-376" value="String" style="shape=partialRectangle;html=1;whiteSpace=wrap;connectable=0;strokeColor=inherit;overflow=hidden;fillColor=none;top=0;left=0;bottom=0;right=0;pointerEvents=1;fontSize=11;" parent="r0z94dYXCMPsbsiVsmT_-375" vertex="1">
          <mxGeometry width="60" height="40" as="geometry">
            <mxRectangle width="60" height="40" as="alternateBounds" />
          </mxGeometry>
        </mxCell>
        <mxCell id="r0z94dYXCMPsbsiVsmT_-377" value="Description" style="shape=partialRectangle;html=1;whiteSpace=wrap;connectable=0;strokeColor=inherit;overflow=hidden;fillColor=none;top=0;left=0;bottom=0;right=0;pointerEvents=1;fontSize=11;" parent="r0z94dYXCMPsbsiVsmT_-375" vertex="1">
          <mxGeometry x="60" width="60" height="40" as="geometry">
            <mxRectangle width="60" height="40" as="alternateBounds" />
          </mxGeometry>
        </mxCell>
        <mxCell id="r0z94dYXCMPsbsiVsmT_-378" value="Not Null" style="shape=partialRectangle;html=1;whiteSpace=wrap;connectable=0;strokeColor=inherit;overflow=hidden;fillColor=none;top=0;left=0;bottom=0;right=0;pointerEvents=1;fontSize=11;" parent="r0z94dYXCMPsbsiVsmT_-375" vertex="1">
          <mxGeometry x="120" width="60" height="40" as="geometry">
            <mxRectangle width="60" height="40" as="alternateBounds" />
          </mxGeometry>
        </mxCell>
        <mxCell id="r0z94dYXCMPsbsiVsmT_-379" value="" style="edgeStyle=entityRelationEdgeStyle;fontSize=12;html=1;endArrow=ERzeroToMany;startArrow=ERmandOne;rounded=0;exitX=0.459;exitY=1.065;exitDx=0;exitDy=0;exitPerimeter=0;entryX=0.5;entryY=0;entryDx=0;entryDy=0;" parent="1" source="r0z94dYXCMPsbsiVsmT_-375" target="r0z94dYXCMPsbsiVsmT_-352" edge="1">
          <mxGeometry width="100" height="100" relative="1" as="geometry">
            <mxPoint x="1040" y="560" as="sourcePoint" />
            <mxPoint x="1140" y="460" as="targetPoint" />
          </mxGeometry>
        </mxCell>
        <mxCell id="WpTCvEs3GVWrxPU21Iq2-1" value="order" style="shape=table;startSize=30;container=1;collapsible=0;childLayout=tableLayout;strokeColor=default;fontSize=16;" vertex="1" parent="1">
          <mxGeometry x="-40" y="1040" width="270" height="270" as="geometry" />
        </mxCell>
        <mxCell id="WpTCvEs3GVWrxPU21Iq2-2" value="" style="shape=tableRow;horizontal=0;startSize=0;swimlaneHead=0;swimlaneBody=0;strokeColor=inherit;top=0;left=0;bottom=0;right=0;collapsible=0;dropTarget=0;fillColor=none;points=[[0,0.5],[1,0.5]];portConstraint=eastwest;fontSize=16;" vertex="1" parent="WpTCvEs3GVWrxPU21Iq2-1">
          <mxGeometry y="30" width="270" height="40" as="geometry" />
        </mxCell>
        <mxCell id="WpTCvEs3GVWrxPU21Iq2-3" value="UUID" style="shape=partialRectangle;html=1;whiteSpace=wrap;connectable=0;strokeColor=inherit;overflow=hidden;fillColor=none;top=0;left=0;bottom=0;right=0;pointerEvents=1;fontSize=12;" vertex="1" parent="WpTCvEs3GVWrxPU21Iq2-2">
          <mxGeometry width="60" height="40" as="geometry">
            <mxRectangle width="60" height="40" as="alternateBounds" />
          </mxGeometry>
        </mxCell>
        <mxCell id="WpTCvEs3GVWrxPU21Iq2-4" value="order_id" style="shape=partialRectangle;html=1;whiteSpace=wrap;connectable=0;strokeColor=inherit;overflow=hidden;fillColor=none;top=0;left=0;bottom=0;right=0;pointerEvents=1;fontSize=12;" vertex="1" parent="WpTCvEs3GVWrxPU21Iq2-2">
          <mxGeometry x="60" width="116" height="40" as="geometry">
            <mxRectangle width="116" height="40" as="alternateBounds" />
          </mxGeometry>
        </mxCell>
        <mxCell id="WpTCvEs3GVWrxPU21Iq2-5" value="PK" style="shape=partialRectangle;html=1;whiteSpace=wrap;connectable=0;strokeColor=inherit;overflow=hidden;fillColor=none;top=0;left=0;bottom=0;right=0;pointerEvents=1;fontSize=12;" vertex="1" parent="WpTCvEs3GVWrxPU21Iq2-2">
          <mxGeometry x="176" width="94" height="40" as="geometry">
            <mxRectangle width="94" height="40" as="alternateBounds" />
          </mxGeometry>
        </mxCell>
        <mxCell id="WpTCvEs3GVWrxPU21Iq2-6" value="" style="shape=tableRow;horizontal=0;startSize=0;swimlaneHead=0;swimlaneBody=0;strokeColor=inherit;top=0;left=0;bottom=0;right=0;collapsible=0;dropTarget=0;fillColor=none;points=[[0,0.5],[1,0.5]];portConstraint=eastwest;fontSize=16;" vertex="1" parent="WpTCvEs3GVWrxPU21Iq2-1">
          <mxGeometry y="70" width="270" height="48" as="geometry" />
        </mxCell>
        <mxCell id="WpTCvEs3GVWrxPU21Iq2-7" value="UUID" style="shape=partialRectangle;html=1;whiteSpace=wrap;connectable=0;strokeColor=inherit;overflow=hidden;fillColor=none;top=0;left=0;bottom=0;right=0;pointerEvents=1;fontSize=12;" vertex="1" parent="WpTCvEs3GVWrxPU21Iq2-6">
          <mxGeometry width="60" height="48" as="geometry">
            <mxRectangle width="60" height="48" as="alternateBounds" />
          </mxGeometry>
        </mxCell>
        <mxCell id="WpTCvEs3GVWrxPU21Iq2-8" value="customer_id" style="shape=partialRectangle;html=1;whiteSpace=wrap;connectable=0;strokeColor=inherit;overflow=hidden;fillColor=none;top=0;left=0;bottom=0;right=0;pointerEvents=1;fontSize=12;" vertex="1" parent="WpTCvEs3GVWrxPU21Iq2-6">
          <mxGeometry x="60" width="116" height="48" as="geometry">
            <mxRectangle width="116" height="48" as="alternateBounds" />
          </mxGeometry>
        </mxCell>
        <mxCell id="WpTCvEs3GVWrxPU21Iq2-9" value="FK" style="shape=partialRectangle;html=1;whiteSpace=wrap;connectable=0;strokeColor=inherit;overflow=hidden;fillColor=none;top=0;left=0;bottom=0;right=0;pointerEvents=1;fontSize=12;" vertex="1" parent="WpTCvEs3GVWrxPU21Iq2-6">
          <mxGeometry x="176" width="94" height="48" as="geometry">
            <mxRectangle width="94" height="48" as="alternateBounds" />
          </mxGeometry>
        </mxCell>
        <mxCell id="WpTCvEs3GVWrxPU21Iq2-39" style="shape=tableRow;horizontal=0;startSize=0;swimlaneHead=0;swimlaneBody=0;strokeColor=inherit;top=0;left=0;bottom=0;right=0;collapsible=0;dropTarget=0;fillColor=none;points=[[0,0.5],[1,0.5]];portConstraint=eastwest;fontSize=16;" vertex="1" parent="WpTCvEs3GVWrxPU21Iq2-1">
          <mxGeometry y="118" width="270" height="48" as="geometry" />
        </mxCell>
        <mxCell id="WpTCvEs3GVWrxPU21Iq2-40" value="decimal" style="shape=partialRectangle;html=1;whiteSpace=wrap;connectable=0;strokeColor=inherit;overflow=hidden;fillColor=none;top=0;left=0;bottom=0;right=0;pointerEvents=1;fontSize=12;" vertex="1" parent="WpTCvEs3GVWrxPU21Iq2-39">
          <mxGeometry width="60" height="48" as="geometry">
            <mxRectangle width="60" height="48" as="alternateBounds" />
          </mxGeometry>
        </mxCell>
        <mxCell id="WpTCvEs3GVWrxPU21Iq2-41" value="total_outstanding" style="shape=partialRectangle;html=1;whiteSpace=wrap;connectable=0;strokeColor=inherit;overflow=hidden;fillColor=none;top=0;left=0;bottom=0;right=0;pointerEvents=1;fontSize=12;" vertex="1" parent="WpTCvEs3GVWrxPU21Iq2-39">
          <mxGeometry x="60" width="116" height="48" as="geometry">
            <mxRectangle width="116" height="48" as="alternateBounds" />
          </mxGeometry>
        </mxCell>
        <mxCell id="WpTCvEs3GVWrxPU21Iq2-42" value="Not Null&lt;br&gt;&amp;gt; 0" style="shape=partialRectangle;html=1;whiteSpace=wrap;connectable=0;strokeColor=inherit;overflow=hidden;fillColor=none;top=0;left=0;bottom=0;right=0;pointerEvents=1;fontSize=12;" vertex="1" parent="WpTCvEs3GVWrxPU21Iq2-39">
          <mxGeometry x="176" width="94" height="48" as="geometry">
            <mxRectangle width="94" height="48" as="alternateBounds" />
          </mxGeometry>
        </mxCell>
        <mxCell id="WpTCvEs3GVWrxPU21Iq2-10" value="" style="shape=tableRow;horizontal=0;startSize=0;swimlaneHead=0;swimlaneBody=0;strokeColor=inherit;top=0;left=0;bottom=0;right=0;collapsible=0;dropTarget=0;fillColor=none;points=[[0,0.5],[1,0.5]];portConstraint=eastwest;fontSize=16;" vertex="1" parent="WpTCvEs3GVWrxPU21Iq2-1">
          <mxGeometry y="166" width="270" height="42" as="geometry" />
        </mxCell>
        <mxCell id="WpTCvEs3GVWrxPU21Iq2-11" value="Timestamp" style="shape=partialRectangle;html=1;whiteSpace=wrap;connectable=0;strokeColor=inherit;overflow=hidden;fillColor=none;top=0;left=0;bottom=0;right=0;pointerEvents=1;fontSize=12;" vertex="1" parent="WpTCvEs3GVWrxPU21Iq2-10">
          <mxGeometry width="60" height="42" as="geometry">
            <mxRectangle width="60" height="42" as="alternateBounds" />
          </mxGeometry>
        </mxCell>
        <mxCell id="WpTCvEs3GVWrxPU21Iq2-12" value="order_created_at" style="shape=partialRectangle;html=1;whiteSpace=wrap;connectable=0;strokeColor=inherit;overflow=hidden;fillColor=none;top=0;left=0;bottom=0;right=0;pointerEvents=1;fontSize=12;" vertex="1" parent="WpTCvEs3GVWrxPU21Iq2-10">
          <mxGeometry x="60" width="116" height="42" as="geometry">
            <mxRectangle width="116" height="42" as="alternateBounds" />
          </mxGeometry>
        </mxCell>
        <mxCell id="WpTCvEs3GVWrxPU21Iq2-13" value="Not Null" style="shape=partialRectangle;html=1;whiteSpace=wrap;connectable=0;strokeColor=inherit;overflow=hidden;fillColor=none;top=0;left=0;bottom=0;right=0;pointerEvents=1;fontSize=12;" vertex="1" parent="WpTCvEs3GVWrxPU21Iq2-10">
          <mxGeometry x="176" width="94" height="42" as="geometry">
            <mxRectangle width="94" height="42" as="alternateBounds" />
          </mxGeometry>
        </mxCell>
        <mxCell id="WpTCvEs3GVWrxPU21Iq2-31" style="shape=tableRow;horizontal=0;startSize=0;swimlaneHead=0;swimlaneBody=0;strokeColor=inherit;top=0;left=0;bottom=0;right=0;collapsible=0;dropTarget=0;fillColor=none;points=[[0,0.5],[1,0.5]];portConstraint=eastwest;fontSize=16;" vertex="1" parent="WpTCvEs3GVWrxPU21Iq2-1">
          <mxGeometry y="208" width="270" height="62" as="geometry" />
        </mxCell>
        <mxCell id="WpTCvEs3GVWrxPU21Iq2-32" value="Timestamp" style="shape=partialRectangle;html=1;whiteSpace=wrap;connectable=0;strokeColor=inherit;overflow=hidden;fillColor=none;top=0;left=0;bottom=0;right=0;pointerEvents=1;fontSize=12;" vertex="1" parent="WpTCvEs3GVWrxPU21Iq2-31">
          <mxGeometry width="60" height="62" as="geometry">
            <mxRectangle width="60" height="62" as="alternateBounds" />
          </mxGeometry>
        </mxCell>
        <mxCell id="WpTCvEs3GVWrxPU21Iq2-33" value="order_completed_at" style="shape=partialRectangle;html=1;whiteSpace=wrap;connectable=0;strokeColor=inherit;overflow=hidden;fillColor=none;top=0;left=0;bottom=0;right=0;pointerEvents=1;fontSize=12;" vertex="1" parent="WpTCvEs3GVWrxPU21Iq2-31">
          <mxGeometry x="60" width="116" height="62" as="geometry">
            <mxRectangle width="116" height="62" as="alternateBounds" />
          </mxGeometry>
        </mxCell>
        <mxCell id="WpTCvEs3GVWrxPU21Iq2-34" value="Updates&lt;br&gt;On&lt;br&gt;Success/Failure" style="shape=partialRectangle;html=1;whiteSpace=wrap;connectable=0;strokeColor=inherit;overflow=hidden;fillColor=none;top=0;left=0;bottom=0;right=0;pointerEvents=1;fontSize=12;" vertex="1" parent="WpTCvEs3GVWrxPU21Iq2-31">
          <mxGeometry x="176" width="94" height="62" as="geometry">
            <mxRectangle width="94" height="62" as="alternateBounds" />
          </mxGeometry>
        </mxCell>
        <mxCell id="WpTCvEs3GVWrxPU21Iq2-14" value="order_item" style="shape=table;startSize=30;container=1;collapsible=0;childLayout=tableLayout;strokeColor=default;fontSize=16;" vertex="1" parent="1">
          <mxGeometry x="324" y="1030" width="243" height="310" as="geometry" />
        </mxCell>
        <mxCell id="WpTCvEs3GVWrxPU21Iq2-15" value="" style="shape=tableRow;horizontal=0;startSize=0;swimlaneHead=0;swimlaneBody=0;strokeColor=inherit;top=0;left=0;bottom=0;right=0;collapsible=0;dropTarget=0;fillColor=none;points=[[0,0.5],[1,0.5]];portConstraint=eastwest;fontSize=16;" vertex="1" parent="WpTCvEs3GVWrxPU21Iq2-14">
          <mxGeometry y="30" width="243" height="40" as="geometry" />
        </mxCell>
        <mxCell id="WpTCvEs3GVWrxPU21Iq2-16" value="big int" style="shape=partialRectangle;html=1;whiteSpace=wrap;connectable=0;strokeColor=inherit;overflow=hidden;fillColor=none;top=0;left=0;bottom=0;right=0;pointerEvents=1;fontSize=12;" vertex="1" parent="WpTCvEs3GVWrxPU21Iq2-15">
          <mxGeometry width="60" height="40" as="geometry">
            <mxRectangle width="60" height="40" as="alternateBounds" />
          </mxGeometry>
        </mxCell>
        <mxCell id="WpTCvEs3GVWrxPU21Iq2-17" value="order_item_id" style="shape=partialRectangle;html=1;whiteSpace=wrap;connectable=0;strokeColor=inherit;overflow=hidden;fillColor=none;top=0;left=0;bottom=0;right=0;pointerEvents=1;fontSize=12;" vertex="1" parent="WpTCvEs3GVWrxPU21Iq2-15">
          <mxGeometry x="60" width="123" height="40" as="geometry">
            <mxRectangle width="123" height="40" as="alternateBounds" />
          </mxGeometry>
        </mxCell>
        <mxCell id="WpTCvEs3GVWrxPU21Iq2-18" value="PK" style="shape=partialRectangle;html=1;whiteSpace=wrap;connectable=0;strokeColor=inherit;overflow=hidden;fillColor=none;top=0;left=0;bottom=0;right=0;pointerEvents=1;fontSize=12;" vertex="1" parent="WpTCvEs3GVWrxPU21Iq2-15">
          <mxGeometry x="183" width="60" height="40" as="geometry">
            <mxRectangle width="60" height="40" as="alternateBounds" />
          </mxGeometry>
        </mxCell>
        <mxCell id="WpTCvEs3GVWrxPU21Iq2-19" value="" style="shape=tableRow;horizontal=0;startSize=0;swimlaneHead=0;swimlaneBody=0;strokeColor=inherit;top=0;left=0;bottom=0;right=0;collapsible=0;dropTarget=0;fillColor=none;points=[[0,0.5],[1,0.5]];portConstraint=eastwest;fontSize=16;" vertex="1" parent="WpTCvEs3GVWrxPU21Iq2-14">
          <mxGeometry y="70" width="243" height="40" as="geometry" />
        </mxCell>
        <mxCell id="WpTCvEs3GVWrxPU21Iq2-20" value="UUID" style="shape=partialRectangle;html=1;whiteSpace=wrap;connectable=0;strokeColor=inherit;overflow=hidden;fillColor=none;top=0;left=0;bottom=0;right=0;pointerEvents=1;fontSize=12;" vertex="1" parent="WpTCvEs3GVWrxPU21Iq2-19">
          <mxGeometry width="60" height="40" as="geometry">
            <mxRectangle width="60" height="40" as="alternateBounds" />
          </mxGeometry>
        </mxCell>
        <mxCell id="WpTCvEs3GVWrxPU21Iq2-21" value="order_id" style="shape=partialRectangle;html=1;whiteSpace=wrap;connectable=0;strokeColor=inherit;overflow=hidden;fillColor=none;top=0;left=0;bottom=0;right=0;pointerEvents=1;fontSize=12;" vertex="1" parent="WpTCvEs3GVWrxPU21Iq2-19">
          <mxGeometry x="60" width="123" height="40" as="geometry">
            <mxRectangle width="123" height="40" as="alternateBounds" />
          </mxGeometry>
        </mxCell>
        <mxCell id="WpTCvEs3GVWrxPU21Iq2-22" value="FK" style="shape=partialRectangle;html=1;whiteSpace=wrap;connectable=0;strokeColor=inherit;overflow=hidden;fillColor=none;top=0;left=0;bottom=0;right=0;pointerEvents=1;fontSize=12;" vertex="1" parent="WpTCvEs3GVWrxPU21Iq2-19">
          <mxGeometry x="183" width="60" height="40" as="geometry">
            <mxRectangle width="60" height="40" as="alternateBounds" />
          </mxGeometry>
        </mxCell>
        <mxCell id="WpTCvEs3GVWrxPU21Iq2-97" style="shape=tableRow;horizontal=0;startSize=0;swimlaneHead=0;swimlaneBody=0;strokeColor=inherit;top=0;left=0;bottom=0;right=0;collapsible=0;dropTarget=0;fillColor=none;points=[[0,0.5],[1,0.5]];portConstraint=eastwest;fontSize=16;" vertex="1" parent="WpTCvEs3GVWrxPU21Iq2-14">
          <mxGeometry y="110" width="243" height="40" as="geometry" />
        </mxCell>
        <mxCell id="WpTCvEs3GVWrxPU21Iq2-98" value="big int" style="shape=partialRectangle;html=1;whiteSpace=wrap;connectable=0;strokeColor=inherit;overflow=hidden;fillColor=none;top=0;left=0;bottom=0;right=0;pointerEvents=1;fontSize=12;" vertex="1" parent="WpTCvEs3GVWrxPU21Iq2-97">
          <mxGeometry width="60" height="40" as="geometry">
            <mxRectangle width="60" height="40" as="alternateBounds" />
          </mxGeometry>
        </mxCell>
        <mxCell id="WpTCvEs3GVWrxPU21Iq2-99" value="product_id" style="shape=partialRectangle;html=1;whiteSpace=wrap;connectable=0;strokeColor=inherit;overflow=hidden;fillColor=none;top=0;left=0;bottom=0;right=0;pointerEvents=1;fontSize=12;" vertex="1" parent="WpTCvEs3GVWrxPU21Iq2-97">
          <mxGeometry x="60" width="123" height="40" as="geometry">
            <mxRectangle width="123" height="40" as="alternateBounds" />
          </mxGeometry>
        </mxCell>
        <mxCell id="WpTCvEs3GVWrxPU21Iq2-100" value="FK" style="shape=partialRectangle;html=1;whiteSpace=wrap;connectable=0;strokeColor=inherit;overflow=hidden;fillColor=none;top=0;left=0;bottom=0;right=0;pointerEvents=1;fontSize=12;" vertex="1" parent="WpTCvEs3GVWrxPU21Iq2-97">
          <mxGeometry x="183" width="60" height="40" as="geometry">
            <mxRectangle width="60" height="40" as="alternateBounds" />
          </mxGeometry>
        </mxCell>
        <mxCell id="WpTCvEs3GVWrxPU21Iq2-101" style="shape=tableRow;horizontal=0;startSize=0;swimlaneHead=0;swimlaneBody=0;strokeColor=inherit;top=0;left=0;bottom=0;right=0;collapsible=0;dropTarget=0;fillColor=none;points=[[0,0.5],[1,0.5]];portConstraint=eastwest;fontSize=16;" vertex="1" parent="WpTCvEs3GVWrxPU21Iq2-14">
          <mxGeometry y="150" width="243" height="40" as="geometry" />
        </mxCell>
        <mxCell id="WpTCvEs3GVWrxPU21Iq2-102" value="String" style="shape=partialRectangle;html=1;whiteSpace=wrap;connectable=0;strokeColor=inherit;overflow=hidden;fillColor=none;top=0;left=0;bottom=0;right=0;pointerEvents=1;fontSize=12;" vertex="1" parent="WpTCvEs3GVWrxPU21Iq2-101">
          <mxGeometry width="60" height="40" as="geometry">
            <mxRectangle width="60" height="40" as="alternateBounds" />
          </mxGeometry>
        </mxCell>
        <mxCell id="WpTCvEs3GVWrxPU21Iq2-103" value="product_name" style="shape=partialRectangle;html=1;whiteSpace=wrap;connectable=0;strokeColor=inherit;overflow=hidden;fillColor=none;top=0;left=0;bottom=0;right=0;pointerEvents=1;fontSize=12;" vertex="1" parent="WpTCvEs3GVWrxPU21Iq2-101">
          <mxGeometry x="60" width="123" height="40" as="geometry">
            <mxRectangle width="123" height="40" as="alternateBounds" />
          </mxGeometry>
        </mxCell>
        <mxCell id="WpTCvEs3GVWrxPU21Iq2-104" value="Not Null" style="shape=partialRectangle;html=1;whiteSpace=wrap;connectable=0;strokeColor=inherit;overflow=hidden;fillColor=none;top=0;left=0;bottom=0;right=0;pointerEvents=1;fontSize=12;" vertex="1" parent="WpTCvEs3GVWrxPU21Iq2-101">
          <mxGeometry x="183" width="60" height="40" as="geometry">
            <mxRectangle width="60" height="40" as="alternateBounds" />
          </mxGeometry>
        </mxCell>
        <mxCell id="WpTCvEs3GVWrxPU21Iq2-47" style="shape=tableRow;horizontal=0;startSize=0;swimlaneHead=0;swimlaneBody=0;strokeColor=inherit;top=0;left=0;bottom=0;right=0;collapsible=0;dropTarget=0;fillColor=none;points=[[0,0.5],[1,0.5]];portConstraint=eastwest;fontSize=16;" vertex="1" parent="WpTCvEs3GVWrxPU21Iq2-14">
          <mxGeometry y="190" width="243" height="40" as="geometry" />
        </mxCell>
        <mxCell id="WpTCvEs3GVWrxPU21Iq2-48" value="int" style="shape=partialRectangle;html=1;whiteSpace=wrap;connectable=0;strokeColor=inherit;overflow=hidden;fillColor=none;top=0;left=0;bottom=0;right=0;pointerEvents=1;fontSize=12;" vertex="1" parent="WpTCvEs3GVWrxPU21Iq2-47">
          <mxGeometry width="60" height="40" as="geometry">
            <mxRectangle width="60" height="40" as="alternateBounds" />
          </mxGeometry>
        </mxCell>
        <mxCell id="WpTCvEs3GVWrxPU21Iq2-49" value="quantity" style="shape=partialRectangle;html=1;whiteSpace=wrap;connectable=0;strokeColor=inherit;overflow=hidden;fillColor=none;top=0;left=0;bottom=0;right=0;pointerEvents=1;fontSize=12;" vertex="1" parent="WpTCvEs3GVWrxPU21Iq2-47">
          <mxGeometry x="60" width="123" height="40" as="geometry">
            <mxRectangle width="123" height="40" as="alternateBounds" />
          </mxGeometry>
        </mxCell>
        <mxCell id="WpTCvEs3GVWrxPU21Iq2-50" value="default&lt;div&gt;1&lt;/div&gt;" style="shape=partialRectangle;html=1;whiteSpace=wrap;connectable=0;strokeColor=inherit;overflow=hidden;fillColor=none;top=0;left=0;bottom=0;right=0;pointerEvents=1;fontSize=12;" vertex="1" parent="WpTCvEs3GVWrxPU21Iq2-47">
          <mxGeometry x="183" width="60" height="40" as="geometry">
            <mxRectangle width="60" height="40" as="alternateBounds" />
          </mxGeometry>
        </mxCell>
        <mxCell id="WpTCvEs3GVWrxPU21Iq2-43" style="shape=tableRow;horizontal=0;startSize=0;swimlaneHead=0;swimlaneBody=0;strokeColor=inherit;top=0;left=0;bottom=0;right=0;collapsible=0;dropTarget=0;fillColor=none;points=[[0,0.5],[1,0.5]];portConstraint=eastwest;fontSize=16;" vertex="1" parent="WpTCvEs3GVWrxPU21Iq2-14">
          <mxGeometry y="230" width="243" height="40" as="geometry" />
        </mxCell>
        <mxCell id="WpTCvEs3GVWrxPU21Iq2-44" value="decimal" style="shape=partialRectangle;html=1;whiteSpace=wrap;connectable=0;strokeColor=inherit;overflow=hidden;fillColor=none;top=0;left=0;bottom=0;right=0;pointerEvents=1;fontSize=12;" vertex="1" parent="WpTCvEs3GVWrxPU21Iq2-43">
          <mxGeometry width="60" height="40" as="geometry">
            <mxRectangle width="60" height="40" as="alternateBounds" />
          </mxGeometry>
        </mxCell>
        <mxCell id="WpTCvEs3GVWrxPU21Iq2-45" value="price_at" style="shape=partialRectangle;html=1;whiteSpace=wrap;connectable=0;strokeColor=inherit;overflow=hidden;fillColor=none;top=0;left=0;bottom=0;right=0;pointerEvents=1;fontSize=12;" vertex="1" parent="WpTCvEs3GVWrxPU21Iq2-43">
          <mxGeometry x="60" width="123" height="40" as="geometry">
            <mxRectangle width="123" height="40" as="alternateBounds" />
          </mxGeometry>
        </mxCell>
        <mxCell id="WpTCvEs3GVWrxPU21Iq2-46" value="snapshot" style="shape=partialRectangle;html=1;whiteSpace=wrap;connectable=0;strokeColor=inherit;overflow=hidden;fillColor=none;top=0;left=0;bottom=0;right=0;pointerEvents=1;fontSize=12;" vertex="1" parent="WpTCvEs3GVWrxPU21Iq2-43">
          <mxGeometry x="183" width="60" height="40" as="geometry">
            <mxRectangle width="60" height="40" as="alternateBounds" />
          </mxGeometry>
        </mxCell>
        <mxCell id="WpTCvEs3GVWrxPU21Iq2-51" style="shape=tableRow;horizontal=0;startSize=0;swimlaneHead=0;swimlaneBody=0;strokeColor=inherit;top=0;left=0;bottom=0;right=0;collapsible=0;dropTarget=0;fillColor=none;points=[[0,0.5],[1,0.5]];portConstraint=eastwest;fontSize=16;" vertex="1" parent="WpTCvEs3GVWrxPU21Iq2-14">
          <mxGeometry y="270" width="243" height="40" as="geometry" />
        </mxCell>
        <mxCell id="WpTCvEs3GVWrxPU21Iq2-52" value="timestamp" style="shape=partialRectangle;html=1;whiteSpace=wrap;connectable=0;strokeColor=inherit;overflow=hidden;fillColor=none;top=0;left=0;bottom=0;right=0;pointerEvents=1;fontSize=12;" vertex="1" parent="WpTCvEs3GVWrxPU21Iq2-51">
          <mxGeometry width="60" height="40" as="geometry">
            <mxRectangle width="60" height="40" as="alternateBounds" />
          </mxGeometry>
        </mxCell>
        <mxCell id="WpTCvEs3GVWrxPU21Iq2-53" value="snapshot_created_at" style="shape=partialRectangle;html=1;whiteSpace=wrap;connectable=0;strokeColor=inherit;overflow=hidden;fillColor=none;top=0;left=0;bottom=0;right=0;pointerEvents=1;fontSize=12;" vertex="1" parent="WpTCvEs3GVWrxPU21Iq2-51">
          <mxGeometry x="60" width="123" height="40" as="geometry">
            <mxRectangle width="123" height="40" as="alternateBounds" />
          </mxGeometry>
        </mxCell>
        <mxCell id="WpTCvEs3GVWrxPU21Iq2-54" value="default&lt;br&gt;timenow()" style="shape=partialRectangle;html=1;whiteSpace=wrap;connectable=0;strokeColor=inherit;overflow=hidden;fillColor=none;top=0;left=0;bottom=0;right=0;pointerEvents=1;fontSize=12;" vertex="1" parent="WpTCvEs3GVWrxPU21Iq2-51">
          <mxGeometry x="183" width="60" height="40" as="geometry">
            <mxRectangle width="60" height="40" as="alternateBounds" />
          </mxGeometry>
        </mxCell>
        <mxCell id="WpTCvEs3GVWrxPU21Iq2-27" value="" style="endArrow=classic;html=1;rounded=0;entryX=0.5;entryY=0;entryDx=0;entryDy=0;exitX=0.443;exitY=1.004;exitDx=0;exitDy=0;exitPerimeter=0;" edge="1" parent="1" source="r0z94dYXCMPsbsiVsmT_-232" target="WpTCvEs3GVWrxPU21Iq2-1">
          <mxGeometry width="50" height="50" relative="1" as="geometry">
            <mxPoint x="210" y="980" as="sourcePoint" />
            <mxPoint x="260" y="930" as="targetPoint" />
          </mxGeometry>
        </mxCell>
        <mxCell id="WpTCvEs3GVWrxPU21Iq2-30" value="" style="edgeStyle=entityRelationEdgeStyle;fontSize=12;html=1;endArrow=ERzeroToMany;startArrow=ERmandOne;rounded=0;exitX=1;exitY=0.5;exitDx=0;exitDy=0;entryX=0;entryY=0.5;entryDx=0;entryDy=0;" edge="1" parent="1" source="WpTCvEs3GVWrxPU21Iq2-6" target="WpTCvEs3GVWrxPU21Iq2-19">
          <mxGeometry width="100" height="100" relative="1" as="geometry">
            <mxPoint x="210" y="1140" as="sourcePoint" />
            <mxPoint x="310" y="1040" as="targetPoint" />
          </mxGeometry>
        </mxCell>
        <mxCell id="WpTCvEs3GVWrxPU21Iq2-35" value="When Order is placed at checkout, a snapshot is created and it&#39;s saved in the order table // order_item table // to ensure compliance for the transaction that took place.&lt;br&gt;&lt;br&gt;Prices will be a snapshot of that day, so we can confirm the transaction if there are issues in the future." style="shape=note;size=20;whiteSpace=wrap;html=1;" vertex="1" parent="1">
          <mxGeometry x="-413" y="1050" width="250" height="130" as="geometry" />
        </mxCell>
        <mxCell id="WpTCvEs3GVWrxPU21Iq2-36" value="" style="endArrow=classic;html=1;rounded=0;entryX=0;entryY=0;entryDx=230.00000000000003;entryDy=60;entryPerimeter=0;exitX=-0.001;exitY=0.019;exitDx=0;exitDy=0;exitPerimeter=0;" edge="1" parent="1" source="WpTCvEs3GVWrxPU21Iq2-10" target="WpTCvEs3GVWrxPU21Iq2-35">
          <mxGeometry width="50" height="50" relative="1" as="geometry">
            <mxPoint x="-110" y="1190" as="sourcePoint" />
            <mxPoint x="-60" y="1140" as="targetPoint" />
          </mxGeometry>
        </mxCell>
        <mxCell id="WpTCvEs3GVWrxPU21Iq2-37" value="Cart_Items will be deleted for the particular UUID, once the transaction finalizes and it&#39;s successful.&amp;nbsp;" style="shape=note;size=20;whiteSpace=wrap;html=1;" vertex="1" parent="1">
          <mxGeometry x="620" y="1065" width="230" height="100" as="geometry" />
        </mxCell>
        <mxCell id="WpTCvEs3GVWrxPU21Iq2-38" style="edgeStyle=orthogonalEdgeStyle;rounded=0;orthogonalLoop=1;jettySize=auto;html=1;exitX=1;exitY=0.5;exitDx=0;exitDy=0;entryX=0;entryY=0.5;entryDx=0;entryDy=0;entryPerimeter=0;" edge="1" parent="1" source="WpTCvEs3GVWrxPU21Iq2-19" target="WpTCvEs3GVWrxPU21Iq2-37">
          <mxGeometry relative="1" as="geometry" />
        </mxCell>
        <mxCell id="WpTCvEs3GVWrxPU21Iq2-55" value="transactions" style="shape=table;startSize=30;container=1;collapsible=0;childLayout=tableLayout;strokeColor=default;fontSize=16;" vertex="1" parent="1">
          <mxGeometry x="90" y="1410" width="268" height="354" as="geometry" />
        </mxCell>
        <mxCell id="WpTCvEs3GVWrxPU21Iq2-56" value="" style="shape=tableRow;horizontal=0;startSize=0;swimlaneHead=0;swimlaneBody=0;strokeColor=inherit;top=0;left=0;bottom=0;right=0;collapsible=0;dropTarget=0;fillColor=none;points=[[0,0.5],[1,0.5]];portConstraint=eastwest;fontSize=16;" vertex="1" parent="WpTCvEs3GVWrxPU21Iq2-55">
          <mxGeometry y="30" width="268" height="46" as="geometry" />
        </mxCell>
        <mxCell id="WpTCvEs3GVWrxPU21Iq2-57" value="UUID" style="shape=partialRectangle;html=1;whiteSpace=wrap;connectable=0;strokeColor=inherit;overflow=hidden;fillColor=none;top=0;left=0;bottom=0;right=0;pointerEvents=1;fontSize=12;" vertex="1" parent="WpTCvEs3GVWrxPU21Iq2-56">
          <mxGeometry width="81" height="46" as="geometry">
            <mxRectangle width="81" height="46" as="alternateBounds" />
          </mxGeometry>
        </mxCell>
        <mxCell id="WpTCvEs3GVWrxPU21Iq2-58" value="trans_id" style="shape=partialRectangle;html=1;whiteSpace=wrap;connectable=0;strokeColor=inherit;overflow=hidden;fillColor=none;top=0;left=0;bottom=0;right=0;pointerEvents=1;fontSize=12;" vertex="1" parent="WpTCvEs3GVWrxPU21Iq2-56">
          <mxGeometry x="81" width="106" height="46" as="geometry">
            <mxRectangle width="106" height="46" as="alternateBounds" />
          </mxGeometry>
        </mxCell>
        <mxCell id="WpTCvEs3GVWrxPU21Iq2-59" value="PK" style="shape=partialRectangle;html=1;whiteSpace=wrap;connectable=0;strokeColor=inherit;overflow=hidden;fillColor=none;top=0;left=0;bottom=0;right=0;pointerEvents=1;fontSize=12;" vertex="1" parent="WpTCvEs3GVWrxPU21Iq2-56">
          <mxGeometry x="187" width="81" height="46" as="geometry">
            <mxRectangle width="81" height="46" as="alternateBounds" />
          </mxGeometry>
        </mxCell>
        <mxCell id="WpTCvEs3GVWrxPU21Iq2-60" value="" style="shape=tableRow;horizontal=0;startSize=0;swimlaneHead=0;swimlaneBody=0;strokeColor=inherit;top=0;left=0;bottom=0;right=0;collapsible=0;dropTarget=0;fillColor=none;points=[[0,0.5],[1,0.5]];portConstraint=eastwest;fontSize=16;" vertex="1" parent="WpTCvEs3GVWrxPU21Iq2-55">
          <mxGeometry y="76" width="268" height="48" as="geometry" />
        </mxCell>
        <mxCell id="WpTCvEs3GVWrxPU21Iq2-61" value="UUID" style="shape=partialRectangle;html=1;whiteSpace=wrap;connectable=0;strokeColor=inherit;overflow=hidden;fillColor=none;top=0;left=0;bottom=0;right=0;pointerEvents=1;fontSize=12;" vertex="1" parent="WpTCvEs3GVWrxPU21Iq2-60">
          <mxGeometry width="81" height="48" as="geometry">
            <mxRectangle width="81" height="48" as="alternateBounds" />
          </mxGeometry>
        </mxCell>
        <mxCell id="WpTCvEs3GVWrxPU21Iq2-62" value="order_id" style="shape=partialRectangle;html=1;whiteSpace=wrap;connectable=0;strokeColor=inherit;overflow=hidden;fillColor=none;top=0;left=0;bottom=0;right=0;pointerEvents=1;fontSize=12;" vertex="1" parent="WpTCvEs3GVWrxPU21Iq2-60">
          <mxGeometry x="81" width="106" height="48" as="geometry">
            <mxRectangle width="106" height="48" as="alternateBounds" />
          </mxGeometry>
        </mxCell>
        <mxCell id="WpTCvEs3GVWrxPU21Iq2-63" value="FK" style="shape=partialRectangle;html=1;whiteSpace=wrap;connectable=0;strokeColor=inherit;overflow=hidden;fillColor=none;top=0;left=0;bottom=0;right=0;pointerEvents=1;fontSize=12;" vertex="1" parent="WpTCvEs3GVWrxPU21Iq2-60">
          <mxGeometry x="187" width="81" height="48" as="geometry">
            <mxRectangle width="81" height="48" as="alternateBounds" />
          </mxGeometry>
        </mxCell>
        <mxCell id="WpTCvEs3GVWrxPU21Iq2-111" style="shape=tableRow;horizontal=0;startSize=0;swimlaneHead=0;swimlaneBody=0;strokeColor=inherit;top=0;left=0;bottom=0;right=0;collapsible=0;dropTarget=0;fillColor=none;points=[[0,0.5],[1,0.5]];portConstraint=eastwest;fontSize=16;" vertex="1" parent="WpTCvEs3GVWrxPU21Iq2-55">
          <mxGeometry y="124" width="268" height="48" as="geometry" />
        </mxCell>
        <mxCell id="WpTCvEs3GVWrxPU21Iq2-112" value="String" style="shape=partialRectangle;html=1;whiteSpace=wrap;connectable=0;strokeColor=inherit;overflow=hidden;fillColor=none;top=0;left=0;bottom=0;right=0;pointerEvents=1;fontSize=12;" vertex="1" parent="WpTCvEs3GVWrxPU21Iq2-111">
          <mxGeometry width="81" height="48" as="geometry">
            <mxRectangle width="81" height="48" as="alternateBounds" />
          </mxGeometry>
        </mxCell>
        <mxCell id="WpTCvEs3GVWrxPU21Iq2-113" value="customer_id" style="shape=partialRectangle;html=1;whiteSpace=wrap;connectable=0;strokeColor=inherit;overflow=hidden;fillColor=none;top=0;left=0;bottom=0;right=0;pointerEvents=1;fontSize=12;" vertex="1" parent="WpTCvEs3GVWrxPU21Iq2-111">
          <mxGeometry x="81" width="106" height="48" as="geometry">
            <mxRectangle width="106" height="48" as="alternateBounds" />
          </mxGeometry>
        </mxCell>
        <mxCell id="WpTCvEs3GVWrxPU21Iq2-114" style="shape=partialRectangle;html=1;whiteSpace=wrap;connectable=0;strokeColor=inherit;overflow=hidden;fillColor=none;top=0;left=0;bottom=0;right=0;pointerEvents=1;fontSize=12;" vertex="1" parent="WpTCvEs3GVWrxPU21Iq2-111">
          <mxGeometry x="187" width="81" height="48" as="geometry">
            <mxRectangle width="81" height="48" as="alternateBounds" />
          </mxGeometry>
        </mxCell>
        <mxCell id="WpTCvEs3GVWrxPU21Iq2-64" value="" style="shape=tableRow;horizontal=0;startSize=0;swimlaneHead=0;swimlaneBody=0;strokeColor=inherit;top=0;left=0;bottom=0;right=0;collapsible=0;dropTarget=0;fillColor=none;points=[[0,0.5],[1,0.5]];portConstraint=eastwest;fontSize=16;" vertex="1" parent="WpTCvEs3GVWrxPU21Iq2-55">
          <mxGeometry y="172" width="268" height="46" as="geometry" />
        </mxCell>
        <mxCell id="WpTCvEs3GVWrxPU21Iq2-65" value="JSON" style="shape=partialRectangle;html=1;whiteSpace=wrap;connectable=0;strokeColor=inherit;overflow=hidden;fillColor=none;top=0;left=0;bottom=0;right=0;pointerEvents=1;fontSize=12;" vertex="1" parent="WpTCvEs3GVWrxPU21Iq2-64">
          <mxGeometry width="81" height="46" as="geometry">
            <mxRectangle width="81" height="46" as="alternateBounds" />
          </mxGeometry>
        </mxCell>
        <mxCell id="WpTCvEs3GVWrxPU21Iq2-66" value="payment_method" style="shape=partialRectangle;html=1;whiteSpace=wrap;connectable=0;strokeColor=inherit;overflow=hidden;fillColor=none;top=0;left=0;bottom=0;right=0;pointerEvents=1;fontSize=12;" vertex="1" parent="WpTCvEs3GVWrxPU21Iq2-64">
          <mxGeometry x="81" width="106" height="46" as="geometry">
            <mxRectangle width="106" height="46" as="alternateBounds" />
          </mxGeometry>
        </mxCell>
        <mxCell id="WpTCvEs3GVWrxPU21Iq2-67" value="Not Null" style="shape=partialRectangle;html=1;whiteSpace=wrap;connectable=0;strokeColor=inherit;overflow=hidden;fillColor=none;top=0;left=0;bottom=0;right=0;pointerEvents=1;fontSize=12;" vertex="1" parent="WpTCvEs3GVWrxPU21Iq2-64">
          <mxGeometry x="187" width="81" height="46" as="geometry">
            <mxRectangle width="81" height="46" as="alternateBounds" />
          </mxGeometry>
        </mxCell>
        <mxCell id="WpTCvEs3GVWrxPU21Iq2-83" style="shape=tableRow;horizontal=0;startSize=0;swimlaneHead=0;swimlaneBody=0;strokeColor=inherit;top=0;left=0;bottom=0;right=0;collapsible=0;dropTarget=0;fillColor=none;points=[[0,0.5],[1,0.5]];portConstraint=eastwest;fontSize=16;" vertex="1" parent="WpTCvEs3GVWrxPU21Iq2-55">
          <mxGeometry y="218" width="268" height="46" as="geometry" />
        </mxCell>
        <mxCell id="WpTCvEs3GVWrxPU21Iq2-84" value="decimal" style="shape=partialRectangle;html=1;whiteSpace=wrap;connectable=0;strokeColor=inherit;overflow=hidden;fillColor=none;top=0;left=0;bottom=0;right=0;pointerEvents=1;fontSize=12;" vertex="1" parent="WpTCvEs3GVWrxPU21Iq2-83">
          <mxGeometry width="81" height="46" as="geometry">
            <mxRectangle width="81" height="46" as="alternateBounds" />
          </mxGeometry>
        </mxCell>
        <mxCell id="WpTCvEs3GVWrxPU21Iq2-85" value="total_outstanding" style="shape=partialRectangle;html=1;whiteSpace=wrap;connectable=0;strokeColor=inherit;overflow=hidden;fillColor=none;top=0;left=0;bottom=0;right=0;pointerEvents=1;fontSize=12;" vertex="1" parent="WpTCvEs3GVWrxPU21Iq2-83">
          <mxGeometry x="81" width="106" height="46" as="geometry">
            <mxRectangle width="106" height="46" as="alternateBounds" />
          </mxGeometry>
        </mxCell>
        <mxCell id="WpTCvEs3GVWrxPU21Iq2-86" value="Not Null&lt;br&gt;&amp;gt;0" style="shape=partialRectangle;html=1;whiteSpace=wrap;connectable=0;strokeColor=inherit;overflow=hidden;fillColor=none;top=0;left=0;bottom=0;right=0;pointerEvents=1;fontSize=12;" vertex="1" parent="WpTCvEs3GVWrxPU21Iq2-83">
          <mxGeometry x="187" width="81" height="46" as="geometry">
            <mxRectangle width="81" height="46" as="alternateBounds" />
          </mxGeometry>
        </mxCell>
        <mxCell id="WpTCvEs3GVWrxPU21Iq2-79" style="shape=tableRow;horizontal=0;startSize=0;swimlaneHead=0;swimlaneBody=0;strokeColor=inherit;top=0;left=0;bottom=0;right=0;collapsible=0;dropTarget=0;fillColor=none;points=[[0,0.5],[1,0.5]];portConstraint=eastwest;fontSize=16;" vertex="1" parent="WpTCvEs3GVWrxPU21Iq2-55">
          <mxGeometry y="264" width="268" height="44" as="geometry" />
        </mxCell>
        <mxCell id="WpTCvEs3GVWrxPU21Iq2-80" value="timestamp" style="shape=partialRectangle;html=1;whiteSpace=wrap;connectable=0;strokeColor=inherit;overflow=hidden;fillColor=none;top=0;left=0;bottom=0;right=0;pointerEvents=1;fontSize=12;" vertex="1" parent="WpTCvEs3GVWrxPU21Iq2-79">
          <mxGeometry width="81" height="44" as="geometry">
            <mxRectangle width="81" height="44" as="alternateBounds" />
          </mxGeometry>
        </mxCell>
        <mxCell id="WpTCvEs3GVWrxPU21Iq2-81" value="submitted_at" style="shape=partialRectangle;html=1;whiteSpace=wrap;connectable=0;strokeColor=inherit;overflow=hidden;fillColor=none;top=0;left=0;bottom=0;right=0;pointerEvents=1;fontSize=12;" vertex="1" parent="WpTCvEs3GVWrxPU21Iq2-79">
          <mxGeometry x="81" width="106" height="44" as="geometry">
            <mxRectangle width="106" height="44" as="alternateBounds" />
          </mxGeometry>
        </mxCell>
        <mxCell id="WpTCvEs3GVWrxPU21Iq2-82" value="default&lt;br&gt;now()" style="shape=partialRectangle;html=1;whiteSpace=wrap;connectable=0;strokeColor=inherit;overflow=hidden;fillColor=none;top=0;left=0;bottom=0;right=0;pointerEvents=1;fontSize=12;" vertex="1" parent="WpTCvEs3GVWrxPU21Iq2-79">
          <mxGeometry x="187" width="81" height="44" as="geometry">
            <mxRectangle width="81" height="44" as="alternateBounds" />
          </mxGeometry>
        </mxCell>
        <mxCell id="WpTCvEs3GVWrxPU21Iq2-87" style="shape=tableRow;horizontal=0;startSize=0;swimlaneHead=0;swimlaneBody=0;strokeColor=inherit;top=0;left=0;bottom=0;right=0;collapsible=0;dropTarget=0;fillColor=none;points=[[0,0.5],[1,0.5]];portConstraint=eastwest;fontSize=16;" vertex="1" parent="WpTCvEs3GVWrxPU21Iq2-55">
          <mxGeometry y="308" width="268" height="46" as="geometry" />
        </mxCell>
        <mxCell id="WpTCvEs3GVWrxPU21Iq2-88" value="timestamp" style="shape=partialRectangle;html=1;whiteSpace=wrap;connectable=0;strokeColor=inherit;overflow=hidden;fillColor=none;top=0;left=0;bottom=0;right=0;pointerEvents=1;fontSize=12;" vertex="1" parent="WpTCvEs3GVWrxPU21Iq2-87">
          <mxGeometry width="81" height="46" as="geometry">
            <mxRectangle width="81" height="46" as="alternateBounds" />
          </mxGeometry>
        </mxCell>
        <mxCell id="WpTCvEs3GVWrxPU21Iq2-89" value="completed_at" style="shape=partialRectangle;html=1;whiteSpace=wrap;connectable=0;strokeColor=inherit;overflow=hidden;fillColor=none;top=0;left=0;bottom=0;right=0;pointerEvents=1;fontSize=12;" vertex="1" parent="WpTCvEs3GVWrxPU21Iq2-87">
          <mxGeometry x="81" width="106" height="46" as="geometry">
            <mxRectangle width="106" height="46" as="alternateBounds" />
          </mxGeometry>
        </mxCell>
        <mxCell id="WpTCvEs3GVWrxPU21Iq2-90" value="Not Null" style="shape=partialRectangle;html=1;whiteSpace=wrap;connectable=0;strokeColor=inherit;overflow=hidden;fillColor=none;top=0;left=0;bottom=0;right=0;pointerEvents=1;fontSize=12;" vertex="1" parent="WpTCvEs3GVWrxPU21Iq2-87">
          <mxGeometry x="187" width="81" height="46" as="geometry">
            <mxRectangle width="81" height="46" as="alternateBounds" />
          </mxGeometry>
        </mxCell>
        <mxCell id="WpTCvEs3GVWrxPU21Iq2-68" value="" style="endArrow=classic;html=1;rounded=0;exitX=0.963;exitY=0.013;exitDx=0;exitDy=0;exitPerimeter=0;" edge="1" parent="1" source="WpTCvEs3GVWrxPU21Iq2-60" target="WpTCvEs3GVWrxPU21Iq2-70">
          <mxGeometry relative="1" as="geometry">
            <mxPoint x="390" y="1480" as="sourcePoint" />
            <mxPoint x="490" y="1480" as="targetPoint" />
          </mxGeometry>
        </mxCell>
        <mxCell id="WpTCvEs3GVWrxPU21Iq2-69" value="" style="shape=message;html=1;outlineConnect=0;" vertex="1" parent="WpTCvEs3GVWrxPU21Iq2-68">
          <mxGeometry width="20" height="14" relative="1" as="geometry">
            <mxPoint x="-10" y="-7" as="offset" />
          </mxGeometry>
        </mxCell>
        <mxCell id="WpTCvEs3GVWrxPU21Iq2-70" value="" style="shape=actor;whiteSpace=wrap;html=1;" vertex="1" parent="1">
          <mxGeometry x="527" y="1450" width="40" height="60" as="geometry" />
        </mxCell>
        <mxCell id="WpTCvEs3GVWrxPU21Iq2-71" value="" style="endArrow=classic;html=1;rounded=0;exitX=0.455;exitY=1.059;exitDx=0;exitDy=0;exitPerimeter=0;" edge="1" parent="1" source="WpTCvEs3GVWrxPU21Iq2-31" target="WpTCvEs3GVWrxPU21Iq2-55">
          <mxGeometry relative="1" as="geometry">
            <mxPoint x="80" y="1360" as="sourcePoint" />
            <mxPoint x="240" y="1360" as="targetPoint" />
          </mxGeometry>
        </mxCell>
        <mxCell id="WpTCvEs3GVWrxPU21Iq2-72" value="Label" style="edgeLabel;resizable=0;html=1;;align=center;verticalAlign=middle;" connectable="0" vertex="1" parent="WpTCvEs3GVWrxPU21Iq2-71">
          <mxGeometry relative="1" as="geometry" />
        </mxCell>
        <mxCell id="WpTCvEs3GVWrxPU21Iq2-73" value="Source" style="edgeLabel;resizable=0;html=1;;align=left;verticalAlign=bottom;" connectable="0" vertex="1" parent="WpTCvEs3GVWrxPU21Iq2-71">
          <mxGeometry x="-1" relative="1" as="geometry" />
        </mxCell>
        <mxCell id="WpTCvEs3GVWrxPU21Iq2-74" value="Target" style="edgeLabel;resizable=0;html=1;;align=right;verticalAlign=bottom;" connectable="0" vertex="1" parent="WpTCvEs3GVWrxPU21Iq2-71">
          <mxGeometry x="1" relative="1" as="geometry" />
        </mxCell>
        <mxCell id="WpTCvEs3GVWrxPU21Iq2-75" value="transaction_request" style="edgeLabel;html=1;align=center;verticalAlign=middle;resizable=0;points=[];" vertex="1" connectable="0" parent="WpTCvEs3GVWrxPU21Iq2-71">
          <mxGeometry x="0.0616" y="-1" relative="1" as="geometry">
            <mxPoint y="-5" as="offset" />
          </mxGeometry>
        </mxCell>
        <mxCell id="WpTCvEs3GVWrxPU21Iq2-78" value="Successful // Failed&lt;br&gt;Mail send to customer" style="text;html=1;align=center;verticalAlign=middle;resizable=0;points=[];autosize=1;strokeColor=none;fillColor=none;" vertex="1" parent="1">
          <mxGeometry x="370" y="1483" width="140" height="40" as="geometry" />
        </mxCell>
        <mxCell id="WpTCvEs3GVWrxPU21Iq2-91" value="" style="endArrow=classic;html=1;rounded=0;exitX=0.447;exitY=0.965;exitDx=0;exitDy=0;exitPerimeter=0;entryX=0.473;entryY=0.013;entryDx=0;entryDy=0;entryPerimeter=0;" edge="1" parent="1" source="r0z94dYXCMPsbsiVsmT_-346" target="WpTCvEs3GVWrxPU21Iq2-14">
          <mxGeometry width="50" height="50" relative="1" as="geometry">
            <mxPoint x="380" y="1080" as="sourcePoint" />
            <mxPoint x="430" y="1030" as="targetPoint" />
          </mxGeometry>
        </mxCell>
        <mxCell id="WpTCvEs3GVWrxPU21Iq2-92" value="Snapshots all items in cart" style="text;html=1;align=center;verticalAlign=middle;resizable=0;points=[];autosize=1;strokeColor=none;fillColor=none;" vertex="1" parent="1">
          <mxGeometry x="440" y="980" width="160" height="30" as="geometry" />
        </mxCell>
        <mxCell id="WpTCvEs3GVWrxPU21Iq2-110" value="From Cart we can initiate the order" style="text;html=1;align=center;verticalAlign=middle;resizable=0;points=[];autosize=1;strokeColor=none;fillColor=none;" vertex="1" parent="1">
          <mxGeometry x="109" y="990" width="210" height="30" as="geometry" />
        </mxCell>
      </root>
    </mxGraphModel>
  </diagram>
</mxfile>
